<svg width="106" height="129" viewBox="0 0 106 129" fill="none" xmlns="http://www.w3.org/2000/svg">
<circle cx="53" cy="66" r="53" fill="#B82762"/>
<rect x="22" y="1" width="64" height="127" rx="4" fill="white" stroke="#B82762" stroke-width="2"/>
<rect x="29.5" y="40.5" width="10" height="10" rx="1.5" stroke="#797272"/>
<rect x="42.5" y="40.5" width="10" height="10" rx="1.5" stroke="#797272"/>
<rect x="55.5" y="40.5" width="10" height="10" rx="1.5" stroke="#797272"/>
<rect x="68.5" y="40.5" width="10" height="10" rx="1.5" stroke="#797272"/>
<path d="M36.88 43.815L37.555 45.015L35.5 45.78L37.555 46.545L36.865 47.775L35.155 46.425L35.47 48.6H34.09L34.375 46.425L32.665 47.805L31.945 46.53L33.985 45.765L31.945 45.03L32.635 43.8L34.39 45.15L34.09 42.96H35.485L35.155 45.15L36.88 43.815Z" fill="black"/>
<path d="M49.88 43.815L50.555 45.015L48.5 45.78L50.555 46.545L49.865 47.775L48.155 46.425L48.47 48.6H47.09L47.375 46.425L45.665 47.805L44.945 46.53L46.985 45.765L44.945 45.03L45.635 43.8L47.39 45.15L47.09 42.96H48.485L48.155 45.15L49.88 43.815Z" fill="black"/>
<path d="M44 78.6172L51.4246 86.0418L68.0416 69.4248" stroke="black" stroke-width="5"/>
</svg>
