<svg width="231" height="54" viewBox="0 0 231 54" fill="none" xmlns="http://www.w3.org/2000/svg">
<circle cx="26.7643" cy="26.7643" r="26.7643" fill="white"/>
<path d="M51.8319 20.721L47.4034 22.0238L27.4302 23.4465L28.5758 1.04653C27.9772 1.00517 27.3733 0.982422 26.7643 0.982422C19.9391 0.982422 13.7352 3.6356 9.1237 7.96484L16.5042 15.1582L11.9299 32.9249L3.46167 37.8084C6.58013 44.3762 12.3921 49.4147 19.4707 51.4992L21.154 46.0626L43.2872 38.2871L48.0507 41.3136C50.8859 37.1725 52.5464 32.1629 52.5464 26.7656C52.5464 24.6842 52.2983 22.6607 51.8319 20.722V20.721Z" fill="#EFEFEF"/>
<path d="M47.4034 22.0226L51.8319 20.7198C49.248 9.96544 39.9237 1.83427 28.5758 1.04639L27.4302 23.4453L47.4034 22.0226Z" fill="#196BD1"/>
<path d="M16.5042 15.1577L9.12371 7.96436C4.11308 12.6679 0.982208 19.3494 0.982208 26.764C0.982208 30.7159 1.87246 34.4599 3.46168 37.8069L11.9299 32.9234L16.5042 15.1567V15.1577Z" fill="#196BD1"/>
<path d="M21.1541 46.0611L19.4708 51.4977C21.7838 52.1791 24.2312 52.5462 26.7645 52.5462C35.606 52.5462 43.4063 48.0949 48.0509 41.3121L43.2874 38.2856L21.1541 46.0611Z" fill="#196BD1"/>
<path d="M43.5748 30.4588L48.4903 31.6489C48.8418 30.0773 49.029 28.4426 49.029 26.7644C49.029 21.8696 47.4481 17.3449 44.7721 13.6702L40.9226 16.6098L38.0006 14.3485L21.5594 10.5621L19.9899 5.54834C13.9897 7.46222 9.09489 11.8504 6.50479 17.5135L10.4721 19.2102L14.911 39.3024L11.5382 43.0092C15.52 46.7429 20.8739 49.03 26.7634 49.03C27.604 49.03 28.4333 48.9814 29.2501 48.8915L28.5315 43.2325L43.5748 30.4588Z" fill="#EFEFEF"/>
<path d="M38.0015 14.3482L40.9235 16.6095L44.773 13.6699C40.725 8.11129 34.1665 4.49756 26.7643 4.49756C24.4027 4.49756 22.1269 4.86669 19.9918 5.54807L21.5613 10.5618L38.0025 14.3482H38.0015Z" fill="#B82762"/>
<path d="M10.4731 19.2099L6.50578 17.5132C5.21745 20.3308 4.4978 23.4627 4.4978 26.7631C4.4978 33.1706 7.20578 38.9454 11.5381 43.0079L14.9109 39.3011L10.4721 19.2089L10.4731 19.2099Z" fill="#B82762"/>
<path d="M48.4913 31.6486L43.5758 30.4585L28.5325 43.2322L29.2511 48.8911C38.7482 47.8354 46.4409 40.8086 48.4923 31.6486H48.4913Z" fill="#B82762"/>
<path d="M40.3651 25.682L45.1131 25.3367C44.654 19.3593 41.3391 14.1822 36.5311 11.165L33.9865 15.1582L18.7395 15.4498L16.1422 11.7337C11.632 14.9266 8.6221 20.0996 8.37808 25.987H12.6412L21.1456 38.1507L18.7509 43.3361C21.1735 44.5096 23.8918 45.1683 26.7642 45.1683C29.6366 45.1683 32.5886 44.4517 35.0887 43.182L32.6909 38.8455L40.3651 25.6831V25.682Z" fill="#EFEFEF"/>
<path d="M33.9864 15.1582L36.531 11.165C33.7 9.38861 30.353 8.36084 26.7641 8.36084C22.8081 8.36084 19.1437 9.60988 16.1421 11.7337L18.7395 15.4498L33.9864 15.1582Z" fill="#ED1B24"/>
<path d="M12.6412 25.9863H8.37817C8.36783 26.2438 8.3606 26.5033 8.3606 26.7639C8.3606 34.0555 12.602 40.3565 18.751 43.3354L21.1457 38.15L12.6412 25.9863Z" fill="#ED1B24"/>
<path d="M45.1679 26.7643C45.1679 26.2835 45.1493 25.8079 45.1131 25.3364L40.3651 25.6818L32.691 38.8442L35.0888 43.1807C41.0693 40.1419 45.1679 33.9318 45.1679 26.7633V26.7643Z" fill="#ED1B24"/>
<path d="M36.2988 23.5726L40.7987 21.9151C38.9789 16.6481 34.2795 12.7252 28.5823 12.0293L28.117 17.042L18.8422 20.0405L15.4725 17.1268C13.2567 19.72 11.9188 23.0856 11.9188 26.7644C11.9188 28.6928 12.2869 30.5353 12.9558 32.2259L17.5715 30.0783L24.9406 36.1519L23.8343 41.3207C24.7814 41.5099 25.7616 41.6102 26.7645 41.6102C31.5518 41.6102 35.8097 39.3427 38.525 35.8251L34.5214 32.594L36.2998 23.5726H36.2988Z" fill="#EFEFEF"/>
<path d="M28.1166 17.0423L28.5819 12.0296C27.9863 11.9572 27.3794 11.9189 26.7631 11.9189C22.2426 11.9189 18.1946 13.9404 15.4711 17.1271L18.8408 20.0408L28.1156 17.0423H28.1166Z" fill="#F7BA00"/>
<path d="M40.7996 21.9146L36.2997 23.572L34.5213 32.5934L38.5248 35.8246C40.4594 33.3172 41.6102 30.176 41.6102 26.7639C41.6102 25.0661 41.3238 23.4345 40.7996 21.9146Z" fill="#F7BA00"/>
<path d="M17.5712 30.0781L12.9556 32.2257C14.7836 36.8434 18.8595 40.3248 23.834 41.3205L24.9403 36.1517L17.5712 30.0781Z" fill="#F7BA00"/>
<path d="M32.1825 23.4456L36.154 21.0633C34.2267 17.8963 30.7422 15.7808 26.7645 15.7808C25.8277 15.7808 24.9178 15.8986 24.0493 16.1189L25.1949 20.3199L20.9763 23.8013L17.1341 21.479C16.2717 23.0475 15.7806 24.8487 15.7806 26.7647C15.7806 29.6277 16.8766 32.2354 18.6716 34.1896L22.247 30.6875L26.9733 32.7203V37.7444C31.9044 37.6524 36.0413 34.3106 37.3306 29.7714L32.8174 28.6548L32.1825 23.4456Z" fill="#EFEFEF"/>
<path d="M25.195 20.3197L24.0493 16.1187C21.0725 16.8755 18.5807 18.8494 17.1352 21.4777L20.9774 23.8L25.196 20.3186L25.195 20.3197Z" fill="#AD0101"/>
<path d="M36.1537 21.063L32.1822 23.4453L32.8171 28.6545L37.3303 29.7712C37.6023 28.8158 37.747 27.8066 37.747 26.7633C37.747 24.6757 37.1649 22.7236 36.1537 21.062V21.063Z" fill="#AD0101"/>
<path d="M22.247 30.688L18.6715 34.1901C20.6795 36.3769 23.5612 37.748 26.7644 37.748C26.8347 37.748 26.904 37.7469 26.9733 37.7449V32.7208L22.247 30.688Z" fill="#AD0101"/>
<path d="M33.9867 26.7643C33.9867 30.753 30.7531 33.9866 26.7644 33.9866C22.7756 33.9866 19.5421 30.753 19.5421 26.7643C19.5421 22.7755 22.7756 19.542 26.7644 19.542C30.7531 19.542 33.9867 22.7755 33.9867 26.7643Z" fill="#EFEFEF"/>
<path d="M22.6049 28.1157H22.1369V25.4121H22.6049V28.1157Z" fill="#A72223"/>
<path d="M23.2568 28.1157V25.4121H24.1835C24.4892 25.4121 24.7219 25.4734 24.8816 25.5959C25.0412 25.7185 25.1212 25.9011 25.1212 26.1437C25.1212 26.2675 25.0878 26.3789 25.0209 26.4779C24.9541 26.577 24.8563 26.6537 24.7275 26.7082C24.8736 26.7479 24.9865 26.8223 25.0665 26.9319C25.1463 27.0415 25.1862 27.1731 25.1862 27.3265C25.1862 27.5804 25.1047 27.7754 24.942 27.9114C24.7792 28.0476 24.5462 28.1157 24.2429 28.1157H23.2568ZM23.7266 26.5503H24.1872C24.3333 26.5503 24.4474 26.5172 24.5297 26.4509C24.612 26.3848 24.6532 26.291 24.6532 26.1696C24.6532 26.0359 24.6151 25.9393 24.539 25.8799C24.4629 25.8205 24.3443 25.7909 24.1835 25.7909H23.7266V26.5503ZM23.7266 26.8958V27.7406H24.2484C24.3957 27.7406 24.5108 27.7041 24.5937 27.631C24.6767 27.558 24.7181 27.4565 24.7181 27.3265C24.7181 27.0455 24.5745 26.902 24.2873 26.8958H23.7265H23.7266Z" fill="#EF9711"/>
<path d="M25.7094 28.1157V25.4121H26.5079C26.7468 25.4121 26.9588 25.4654 27.1439 25.5719C27.329 25.6783 27.4723 25.8293 27.5738 26.0249C27.6752 26.2206 27.7261 26.4446 27.7261 26.6971V26.8328C27.7261 27.089 27.675 27.3143 27.5729 27.5086C27.4707 27.703 27.3252 27.8528 27.1365 27.9581C26.9477 28.0633 26.7314 28.1158 26.4875 28.1158H25.7095L25.7094 28.1157ZM26.1792 25.791V27.7406H26.4856C26.732 27.7406 26.921 27.6636 27.0529 27.5095C27.1847 27.3554 27.2518 27.1341 27.2543 26.8456V26.6953C27.2543 26.4018 27.1905 26.1778 27.063 26.023C26.9355 25.8683 26.7505 25.791 26.5078 25.791H26.1791H26.1792Z" fill="#E32031"/>
<path d="M28.664 28.1157H28.196V25.4121H28.664V28.1157Z" fill="#B82762"/>
<path d="M31.3789 27.2356C31.3516 27.5241 31.2452 27.7491 31.0595 27.9106C30.8738 28.0721 30.6268 28.153 30.3186 28.153C30.1032 28.153 29.9135 28.1019 29.7495 27.9998C29.5854 27.8977 29.4588 27.7525 29.3697 27.5643C29.2806 27.3763 29.2341 27.1577 29.2304 26.9088V26.6563C29.2304 26.4013 29.2756 26.1766 29.366 25.9823C29.4563 25.7879 29.586 25.6381 29.755 25.5329C29.9241 25.4276 30.1193 25.375 30.3409 25.375C30.6392 25.375 30.8794 25.4558 31.0614 25.6174C31.2433 25.7789 31.3492 26.0076 31.3789 26.3035H30.9109C30.8887 26.1092 30.832 25.969 30.741 25.883C30.6501 25.797 30.5167 25.754 30.3409 25.754C30.1366 25.754 29.9797 25.8286 29.8701 25.9779C29.7605 26.1272 29.7046 26.3462 29.7021 26.6349V26.8746C29.7021 27.167 29.7543 27.39 29.8591 27.5438C29.9636 27.6974 30.1168 27.7742 30.3187 27.7742C30.5031 27.7742 30.6418 27.7329 30.7345 27.6498C30.8274 27.5669 30.8862 27.4289 30.9109 27.2357H31.3789V27.2356Z" fill="#0B4887"/>
<path d="M61.9836 14.2612V24.0789H60.3732V14.2612H61.9836Z" fill="black"/>
<path d="M69.6752 16.5499C70.1602 16.8041 70.5391 17.1809 70.8125 17.68C71.0856 18.1792 71.2222 18.7818 71.2222 19.4881V24.0791H69.6259V19.7282C69.6259 19.0314 69.4515 18.4971 69.1032 18.1249C68.7547 17.7529 68.2791 17.567 67.6766 17.567C67.0741 17.567 66.5958 17.753 66.2427 18.1249C65.8895 18.4971 65.713 19.0314 65.713 19.7282V24.0791H64.1026V16.2956H65.713V17.1855C65.9766 16.8655 66.3134 16.6158 66.723 16.4369C67.1327 16.2581 67.5682 16.1685 68.0298 16.1685C68.6418 16.1685 69.1903 16.2955 69.6754 16.5498L69.6752 16.5499Z" fill="black"/>
<path d="M73.2207 18.0753C73.5456 17.4727 73.9881 17.0042 74.5486 16.6697C75.1088 16.3356 75.7327 16.1682 76.4204 16.1682C76.9289 16.1682 77.4303 16.279 77.9248 16.5001C78.4191 16.7216 78.8122 17.0158 79.1042 17.383V13.6255H80.7288V24.0789H79.1042V22.9063C78.8405 23.2832 78.4757 23.5939 78.0095 23.8388C77.5433 24.0835 77.0087 24.206 76.4062 24.206C75.7281 24.206 75.1088 24.0343 74.5486 23.6905C73.9881 23.3468 73.5456 22.8665 73.2207 22.2495C72.8957 21.6329 72.7333 20.9336 72.7333 20.1518C72.7333 19.37 72.8957 18.6781 73.2207 18.0753ZM78.7722 18.7816C78.5508 18.3861 78.2612 18.0848 77.9035 17.8775C77.5454 17.6705 77.1594 17.5668 76.7451 17.5668C76.3308 17.5668 75.9446 17.668 75.5869 17.8705C75.2288 18.0731 74.9392 18.3698 74.7181 18.7604C74.4966 19.1512 74.3861 19.6151 74.3861 20.1518C74.3861 20.6886 74.4966 21.1596 74.7181 21.5644C74.9393 21.9694 75.2313 22.2778 75.594 22.4896C75.9564 22.7016 76.3402 22.8075 76.7452 22.8075C77.1595 22.8075 77.5455 22.704 77.9036 22.4967C78.2613 22.2897 78.551 21.986 78.7723 21.5855C78.9935 21.1854 79.1042 20.7168 79.1042 20.1799C79.1042 19.6431 78.9935 19.177 78.7723 18.7815L78.7722 18.7816Z" fill="black"/>
<path d="M82.9325 14.9679C82.7347 14.7702 82.6358 14.5253 82.6358 14.2333C82.6358 13.9413 82.7347 13.6966 82.9325 13.4988C83.1301 13.301 83.3749 13.2021 83.667 13.2021C83.9495 13.2021 84.1898 13.301 84.3875 13.4988C84.5853 13.6965 84.6841 13.9415 84.6841 14.2333C84.6841 14.5251 84.5853 14.7702 84.3875 14.9679C84.1898 15.1657 83.9496 15.2645 83.667 15.2645C83.375 15.2645 83.1303 15.1657 82.9325 14.9679ZM84.4581 16.2958V24.0792H82.8477V16.2958H84.4581Z" fill="black"/>
<path d="M86.5274 18.0755C86.8522 17.4729 87.2948 17.0044 87.8552 16.6699C88.4154 16.3359 89.0347 16.1685 89.7128 16.1685C90.3248 16.1685 90.8592 16.2885 91.3161 16.5286C91.7728 16.7687 92.1376 17.0678 92.4109 17.4257V16.2955H94.0354V24.079H92.4109V22.9206C92.1376 23.288 91.7658 23.5941 91.2949 23.8389C90.8239 24.0836 90.2871 24.2061 89.6846 24.2061C89.0158 24.2061 88.4037 24.0344 87.8481 23.6906C87.2924 23.3469 86.8522 22.8666 86.5275 22.2497C86.2025 21.633 86.04 20.9337 86.04 20.1519C86.04 19.3702 86.2025 18.6782 86.5275 18.0754L86.5274 18.0755ZM92.0789 18.7818C91.8574 18.3863 91.5679 18.085 91.2101 17.8777C90.852 17.6707 90.4661 17.567 90.0518 17.567C89.6374 17.567 89.2513 17.6682 88.8935 17.8707C88.5354 18.0733 88.2458 18.37 88.0248 18.7606C87.8033 19.1515 87.6927 19.6153 87.6927 20.152C87.6927 20.6888 87.8033 21.1599 88.0248 21.5647C88.2459 21.9697 88.5379 22.278 88.9006 22.4899C89.263 22.7018 89.6469 22.8077 90.0519 22.8077C90.4662 22.8077 90.8521 22.7042 91.2102 22.4969C91.568 22.2899 91.8576 21.9862 92.079 21.5858C92.3001 21.1856 92.4109 20.717 92.4109 20.1802C92.4109 19.6433 92.3001 19.1772 92.079 18.7817L92.0789 18.7818Z" fill="black"/>
<path d="M101.727 16.5499C102.212 16.8041 102.591 17.1809 102.864 17.68C103.137 18.1792 103.274 18.7818 103.274 19.4881V24.0791H101.678V19.7282C101.678 19.0314 101.503 18.4971 101.155 18.1249C100.806 17.7529 100.331 17.567 99.7281 17.567C99.1255 17.567 98.6475 17.753 98.2943 18.1249C97.9412 18.4971 97.7646 19.0314 97.7646 19.7282V24.0791H96.1543V16.2956H97.7646V17.1855C98.0282 16.8655 98.365 16.6158 98.7747 16.4369C99.1844 16.2581 99.6199 16.1685 100.081 16.1685C100.693 16.1685 101.242 16.2955 101.727 16.5498L101.727 16.5499Z" fill="black"/>
<path d="M115.592 19.8693C115.959 20.3309 116.142 20.8535 116.142 21.4373C116.142 21.9365 116.013 22.3862 115.754 22.7863C115.495 23.1868 115.121 23.5022 114.631 23.7327C114.141 23.9636 113.572 24.0789 112.922 24.0789H108.995V14.2612H112.738C113.407 14.2612 113.981 14.3742 114.462 14.6003C114.942 14.8263 115.304 15.13 115.549 15.5114C115.794 15.8928 115.917 16.3191 115.917 16.7898C115.917 17.3549 115.766 17.826 115.465 18.2024C115.163 18.5792 114.758 18.8571 114.25 19.0359C114.777 19.1301 115.225 19.4081 115.592 19.8694L115.592 19.8693ZM110.605 18.3861H112.597C113.124 18.3861 113.536 18.266 113.833 18.0258C114.13 17.7857 114.278 17.4397 114.278 16.9876C114.278 16.5451 114.13 16.1989 113.833 15.9493C113.536 15.6999 113.124 15.575 112.597 15.575H110.605V18.3861ZM114.066 22.3695C114.377 22.106 114.532 21.7387 114.532 21.2677C114.532 20.7875 114.367 20.406 114.038 20.1235C113.708 19.8411 113.27 19.6997 112.724 19.6997H110.605V22.765H112.781C113.327 22.765 113.755 22.6333 114.066 22.3695Z" fill="black"/>
<path d="M117.844 18.0755C118.169 17.4729 118.612 17.0044 119.172 16.6699C119.733 16.3359 120.352 16.1685 121.03 16.1685C121.642 16.1685 122.176 16.2885 122.633 16.5286C123.09 16.7687 123.455 17.0678 123.728 17.4257V16.2955H125.353V24.079H123.728V22.9206C123.455 23.288 123.083 23.5941 122.612 23.8389C122.141 24.0836 121.604 24.2061 121.002 24.2061C120.333 24.2061 119.721 24.0344 119.165 23.6906C118.61 23.3469 118.169 22.8666 117.845 22.2497C117.52 21.633 117.357 20.9337 117.357 20.1519C117.357 19.3702 117.52 18.6782 117.845 18.0754L117.844 18.0755ZM123.396 18.7818C123.175 18.3863 122.885 18.085 122.527 17.8777C122.169 17.6707 121.783 17.567 121.369 17.567C120.955 17.567 120.568 17.6682 120.211 17.8707C119.853 18.0733 119.563 18.37 119.342 18.7606C119.121 19.1515 119.01 19.6153 119.01 20.152C119.01 20.6888 119.121 21.1599 119.342 21.5647C119.563 21.9697 119.855 22.278 120.218 22.4899C120.58 22.7018 120.964 22.8077 121.369 22.8077C121.783 22.8077 122.169 22.7042 122.527 22.4969C122.885 22.2899 123.175 21.9862 123.396 21.5858C123.617 21.1856 123.728 20.717 123.728 20.1802C123.728 19.6433 123.617 19.1772 123.396 18.7817L123.396 18.7818Z" fill="black"/>
<path d="M133.044 16.5499C133.529 16.8041 133.908 17.1809 134.181 17.68C134.454 18.1792 134.591 18.7818 134.591 19.4881V24.0791H132.995V19.7282C132.995 19.0314 132.82 18.4971 132.472 18.1249C132.124 17.7529 131.648 17.567 131.045 17.567C130.443 17.567 129.965 17.753 129.612 18.1249C129.258 18.4971 129.082 19.0314 129.082 19.7282V24.0791H127.471V16.2956H129.082V17.1855C129.345 16.8655 129.682 16.6158 130.092 16.4369C130.502 16.2581 130.937 16.1685 131.399 16.1685C132.011 16.1685 132.559 16.2956 133.044 16.5499Z" fill="black"/>
<path d="M139.718 20.1942L143.307 24.0788H141.131L138.249 20.7309V24.0788H136.639V13.6255H138.249V19.6997L141.075 16.2953H143.307L139.718 20.1942Z" fill="black"/>
<path d="M145.644 23.8745C145.159 23.6534 144.775 23.3519 144.493 22.9705C144.21 22.5892 144.06 22.1631 144.041 21.6921H145.708C145.736 22.0219 145.894 22.2974 146.181 22.5185C146.468 22.7399 146.828 22.8505 147.261 22.8505C147.713 22.8505 148.064 22.7635 148.314 22.5892C148.563 22.415 148.688 22.1914 148.688 21.9181C148.688 21.6265 148.549 21.4096 148.272 21.2684C147.994 21.1272 147.553 20.9718 146.951 20.8022C146.367 20.6422 145.891 20.4868 145.524 20.3361C145.157 20.1855 144.839 19.9547 144.571 19.6439C144.302 19.3331 144.168 18.9234 144.168 18.4149C144.168 18.0006 144.29 17.6216 144.535 17.2778C144.78 16.9341 145.131 16.6633 145.588 16.4655C146.044 16.2678 146.569 16.1689 147.163 16.1689C148.048 16.1689 148.761 16.3927 149.303 16.8399C149.844 17.2873 150.134 17.8971 150.171 18.6692H148.561C148.533 18.3208 148.391 18.0429 148.137 17.8357C147.883 17.6286 147.539 17.5249 147.106 17.5249C146.682 17.5249 146.357 17.6049 146.131 17.765C145.905 17.9253 145.792 18.1372 145.792 18.4007C145.792 18.6079 145.868 18.782 146.018 18.9233C146.169 19.0646 146.352 19.1754 146.569 19.2554C146.786 19.3354 147.106 19.4367 147.53 19.559C148.095 19.7098 148.559 19.8628 148.921 20.0181C149.284 20.1735 149.597 20.4019 149.861 20.7032C150.124 21.0047 150.261 21.4049 150.27 21.904C150.27 22.3467 150.148 22.7422 149.903 23.0906C149.658 23.4391 149.312 23.7122 148.865 23.9099C148.417 24.1077 147.892 24.2065 147.29 24.2065C146.677 24.2065 146.129 24.0958 145.644 23.8745Z" fill="black"/>
<path d="M152.262 14.2612H154.014L152.53 17.6233H151.4L152.262 14.2612Z" fill="black"/>
<path d="M165.053 14.8616C165.839 15.2619 166.447 15.8363 166.876 16.585C167.304 17.3336 167.518 18.2072 167.518 19.2054C167.518 20.2036 167.304 21.07 166.876 21.8046C166.447 22.5391 165.839 23.102 165.053 23.4926C164.267 23.8835 163.351 24.0789 162.306 24.0789H159.099V14.2612H162.306C163.351 14.2612 164.267 14.4614 165.053 14.8616ZM164.947 21.8328C165.559 21.2113 165.866 20.3355 165.866 19.2054C165.866 18.0659 165.559 17.1761 164.947 16.5356C164.335 15.8953 163.455 15.575 162.306 15.575H160.709V22.7651H162.306C163.455 22.7651 164.335 22.4544 164.947 21.8328Z" fill="black"/>
<path d="M169.199 14.9679C169.002 14.7702 168.903 14.5253 168.903 14.2333C168.903 13.9413 169.002 13.6966 169.199 13.4988C169.397 13.301 169.642 13.2021 169.934 13.2021C170.216 13.2021 170.457 13.301 170.654 13.4988C170.852 13.6965 170.951 13.9415 170.951 14.2333C170.951 14.5251 170.852 14.7702 170.654 14.9679C170.457 15.1657 170.217 15.2645 169.934 15.2645C169.642 15.2645 169.397 15.1657 169.199 14.9679ZM170.725 16.2958V24.0792H169.115V16.2958H170.725Z" fill="black"/>
<path d="M177.583 16.5287C178.049 16.7688 178.414 17.0679 178.678 17.4258V16.2956H180.302V24.2063C180.302 24.9219 180.151 25.5599 179.85 26.1203C179.549 26.6805 179.113 27.1209 178.543 27.4411C177.974 27.7613 177.293 27.9214 176.502 27.9214C175.447 27.9214 174.572 27.6742 173.875 27.1799C173.178 26.6854 172.782 26.0145 172.688 25.1668H174.284C174.407 25.5716 174.668 25.899 175.068 26.1486C175.469 26.398 175.946 26.523 176.502 26.523C177.152 26.523 177.677 26.3252 178.077 25.9297C178.477 25.5342 178.678 24.9596 178.678 24.2063V22.9067C178.404 23.274 178.035 23.5826 177.569 23.832C177.102 24.0813 176.573 24.2063 175.979 24.2063C175.301 24.2063 174.682 24.0345 174.122 23.6907C173.561 23.347 173.119 22.8667 172.794 22.2498C172.469 21.6331 172.307 20.9338 172.307 20.152C172.307 19.3703 172.469 18.6783 172.794 18.0755C173.119 17.4729 173.561 17.0044 174.122 16.6699C174.682 16.3359 175.301 16.1685 175.979 16.1685C176.582 16.1685 177.117 16.2885 177.583 16.5286V16.5287ZM178.346 18.7818C178.124 18.3863 177.835 18.085 177.477 17.8777C177.119 17.6707 176.733 17.567 176.319 17.567C175.904 17.567 175.518 17.6682 175.16 17.8707C174.802 18.0733 174.513 18.37 174.292 18.7606C174.07 19.1515 173.96 19.6153 173.96 20.152C173.96 20.6888 174.07 21.1599 174.292 21.5647C174.513 21.9697 174.805 22.278 175.167 22.4899C175.53 22.7018 175.914 22.8077 176.319 22.8077C176.733 22.8077 177.119 22.7042 177.477 22.4969C177.835 22.2899 178.124 21.9862 178.346 21.5858C178.567 21.1856 178.678 20.717 178.678 20.1802C178.678 19.6433 178.567 19.1772 178.346 18.7817L178.346 18.7818Z" fill="black"/>
<path d="M182.506 14.9679C182.308 14.7702 182.209 14.5253 182.209 14.2333C182.209 13.9413 182.308 13.6966 182.506 13.4988C182.704 13.301 182.948 13.2021 183.24 13.2021C183.523 13.2021 183.763 13.301 183.961 13.4988C184.159 13.6965 184.258 13.9415 184.258 14.2333C184.258 14.5251 184.159 14.7702 183.961 14.9679C183.763 15.1657 183.523 15.2645 183.24 15.2645C182.948 15.2645 182.704 15.1657 182.506 14.9679ZM184.032 16.2958V24.0792H182.421V16.2958H184.032Z" fill="black"/>
<path d="M188.029 17.6092V21.9177C188.029 22.2097 188.097 22.4192 188.234 22.5463C188.37 22.6734 188.603 22.7371 188.933 22.7371H189.922V24.0791H188.651C187.925 24.0791 187.37 23.9095 186.984 23.5706C186.598 23.2315 186.405 22.6806 186.405 21.9178V17.6093H185.486V16.2956H186.405V14.3604H188.029V16.2956H189.922V17.6093H188.029L188.029 17.6092Z" fill="black"/>
<path d="M191.356 18.0755C191.68 17.4729 192.123 17.0044 192.683 16.6699C193.244 16.3359 193.863 16.1685 194.541 16.1685C195.153 16.1685 195.688 16.2885 196.144 16.5286C196.601 16.7687 196.966 17.0678 197.239 17.4257V16.2955H198.864V24.079H197.239V22.9206C196.966 23.288 196.594 23.5941 196.123 23.8389C195.652 24.0836 195.115 24.2061 194.513 24.2061C193.844 24.2061 193.232 24.0344 192.676 23.6906C192.121 23.3469 191.68 22.8666 191.356 22.2497C191.031 21.633 190.868 20.9337 190.868 20.1519C190.868 19.3702 191.031 18.6782 191.356 18.0754L191.356 18.0755ZM196.907 18.7818C196.686 18.3863 196.396 18.085 196.038 17.8777C195.68 17.6707 195.294 17.567 194.88 17.567C194.466 17.567 194.079 17.6682 193.722 17.8707C193.364 18.0733 193.074 18.37 192.853 18.7606C192.632 19.1515 192.521 19.6153 192.521 20.152C192.521 20.6888 192.632 21.1599 192.853 21.5647C193.074 21.9697 193.366 22.278 193.729 22.4899C194.091 22.7018 194.475 22.8077 194.88 22.8077C195.295 22.8077 195.68 22.7042 196.038 22.4969C196.396 22.2899 196.686 21.9862 196.907 21.5858C197.128 21.1856 197.239 20.717 197.239 20.1802C197.239 19.6433 197.128 19.1772 196.907 18.7817L196.907 18.7818Z" fill="black"/>
<path d="M202.593 13.6255V24.0788H200.983V13.6255H202.593Z" fill="black"/>
<path d="M61.9837 31.2134V41.0311H60.3733V31.2134H61.9837Z" fill="black"/>
<path d="M69.6753 33.502C70.1603 33.7563 70.5392 34.1331 70.8126 34.6322C71.0857 35.1314 71.2222 35.734 71.2222 36.4403V41.0312H69.626V36.6804C69.626 35.9836 69.4516 35.4492 69.1033 35.0771C68.7548 34.7051 68.2791 34.5192 67.6766 34.5192C67.0742 34.5192 66.5959 34.7052 66.2428 35.0771C65.8896 35.4492 65.7131 35.9836 65.7131 36.6804V41.0312H64.1027V33.2478H65.7131V34.1376C65.9767 33.8176 66.3135 33.5679 66.7231 33.389C67.1328 33.2103 67.5683 33.1206 68.0299 33.1206C68.6419 33.1206 69.1904 33.2477 69.6755 33.5019L69.6753 33.502Z" fill="black"/>
<path d="M76.5334 34.5615H75.0925V41.0313H73.468V34.5615H72.5497V33.2479H73.468V32.697C73.468 31.8024 73.7057 31.1501 74.1814 30.7405C74.6568 30.3308 75.4032 30.126 76.4203 30.126V31.468C75.9305 31.468 75.5868 31.5599 75.389 31.7434C75.1912 31.9271 75.0924 32.245 75.0924 32.6971V33.248H76.5333V34.5616L76.5334 34.5615Z" fill="black"/>
<path d="M80.5095 33.4525C80.9001 33.2313 81.3641 33.1206 81.9009 33.1206V34.7875H81.4912C80.8602 34.7875 80.3823 34.9477 80.0575 35.2678C79.7325 35.5881 79.5701 36.1436 79.5701 36.9346V41.0312H77.9598V33.2478H79.5701V34.3779C79.8053 33.9823 80.1186 33.674 80.5095 33.4526V33.4525Z" fill="black"/>
<path d="M83.3347 35.0277C83.6596 34.4251 84.1021 33.9566 84.6626 33.6221C85.2228 33.288 85.8421 33.1206 86.5202 33.1206C87.1322 33.1206 87.6666 33.2406 88.1235 33.4807C88.5802 33.7208 88.945 34.02 89.2182 34.3778V33.2477H90.8428V41.0311H89.2182V39.8728C88.945 40.2401 88.5731 40.5463 88.1023 40.791C87.6313 41.0358 87.0945 41.1583 86.492 41.1583C85.8232 41.1583 85.2111 40.9866 84.6555 40.6428C84.0998 40.2991 83.6596 39.8188 83.3348 39.2018C83.0098 38.5852 82.8474 37.8859 82.8474 37.1041C82.8474 36.3223 83.0098 35.6304 83.3348 35.0276L83.3347 35.0277ZM88.8862 35.734C88.6647 35.3385 88.3752 35.0372 88.0175 34.8299C87.6594 34.6229 87.2734 34.5192 86.8591 34.5192C86.4448 34.5192 86.0586 34.6204 85.7009 34.8228C85.3428 35.0255 85.0532 35.3221 84.8321 35.7128C84.6106 36.1036 84.5001 36.5675 84.5001 37.1042C84.5001 37.6409 84.6106 38.112 84.8321 38.5168C85.0533 38.9218 85.3453 39.2301 85.708 39.442C86.0704 39.654 86.4542 39.7598 86.8592 39.7598C87.2735 39.7598 87.6595 39.6564 88.0176 39.449C88.3753 39.242 88.665 38.9384 88.8863 38.5379C89.1075 38.1378 89.2182 37.6692 89.2182 37.1323C89.2182 36.5955 89.1075 36.1294 88.8863 35.7339L88.8862 35.734Z" fill="black"/>
<path d="M94.1413 40.8262C93.6562 40.605 93.2725 40.3035 92.9899 39.9222C92.7074 39.5409 92.5568 39.1148 92.538 38.6438H94.2049C94.2331 38.9735 94.3907 39.2491 94.678 39.4701C94.9651 39.6916 95.3255 39.8021 95.7587 39.8021C96.2107 39.8021 96.5615 39.7152 96.8111 39.5409C97.0605 39.3666 97.1854 39.1431 97.1854 38.8698C97.1854 38.5781 97.0463 38.3613 96.7687 38.2201C96.4908 38.0788 96.0505 37.9234 95.448 37.7538C94.864 37.5939 94.3885 37.4385 94.0212 37.2877C93.654 37.1372 93.3361 36.9064 93.0677 36.5956C92.7993 36.2848 92.6651 35.8751 92.6651 35.3666C92.6651 34.9523 92.7874 34.5732 93.0323 34.2294C93.2771 33.8857 93.6279 33.6149 94.0848 33.4171C94.5414 33.2195 95.0666 33.1206 95.6598 33.1206C96.5449 33.1206 97.2583 33.3444 97.7999 33.7915C98.3413 34.2389 98.6309 34.8488 98.6686 35.6209H97.0582C97.0301 35.2725 96.8887 34.9946 96.6344 34.7874C96.3801 34.5803 96.0363 34.4766 95.6032 34.4766C95.1794 34.4766 94.8545 34.5566 94.6285 34.7166C94.4023 34.8769 94.2894 35.0889 94.2894 35.3523C94.2894 35.5595 94.3648 35.7337 94.5156 35.875C94.666 36.0162 94.8496 36.1271 95.0665 36.207C95.283 36.287 95.6032 36.3884 96.027 36.5107C96.5921 36.6614 97.0557 36.8145 97.4184 36.9698C97.7809 37.1252 98.094 37.3536 98.3578 37.6549C98.6214 37.9564 98.758 38.3565 98.7675 38.8556C98.7675 39.2984 98.6449 39.6939 98.4002 40.0422C98.1552 40.3908 97.8091 40.6639 97.3619 40.8615C96.9145 41.0593 96.3894 41.1582 95.7868 41.1582C95.1746 41.1582 94.6262 41.0475 94.1413 40.8262Z" fill="black"/>
<path d="M102.384 34.5613V38.8698C102.384 39.1618 102.452 39.3714 102.588 39.4985C102.725 39.6255 102.958 39.6892 103.288 39.6892H104.276V41.0312H103.005C102.28 41.0312 101.724 40.8617 101.338 40.5227C100.952 40.1837 100.759 39.6328 100.759 38.8699V34.5614H99.8408V33.2478H100.759V31.3125H102.384V33.2478H104.276V34.5614H102.384L102.384 34.5613Z" fill="black"/>
<path d="M108.31 33.4525C108.7 33.2313 109.164 33.1206 109.701 33.1206V34.7875H109.291C108.66 34.7875 108.182 34.9477 107.858 35.2678C107.533 35.5881 107.37 36.1436 107.37 36.9346V41.0312H105.76V33.2478H107.37V34.3779C107.605 33.9823 107.919 33.674 108.31 33.4526V33.4525Z" fill="black"/>
<path d="M118.233 33.2476V41.031H116.623V40.1128C116.368 40.433 116.036 40.6848 115.627 40.8686C115.217 41.0522 114.781 41.144 114.32 41.144C113.708 41.144 113.159 41.0169 112.674 40.7627C112.189 40.5084 111.808 40.1319 111.53 39.6325C111.252 39.1336 111.113 38.5307 111.113 37.8244V33.2476H112.71V37.5842C112.71 38.2812 112.884 38.8156 113.233 39.1875C113.581 39.5598 114.056 39.7455 114.659 39.7455C115.262 39.7455 115.74 39.5597 116.093 39.1875C116.446 38.8156 116.623 38.2812 116.623 37.5842V33.2476H118.233Z" fill="black"/>
<path d="M120.302 35.0205C120.627 34.4131 121.077 33.9448 121.651 33.6149C122.226 33.2854 122.885 33.1206 123.629 33.1206C124.571 33.1206 125.35 33.3444 125.967 33.7916C126.584 34.239 127 34.877 127.217 35.7056H125.48C125.338 35.3197 125.112 35.0184 124.801 34.8016C124.491 34.585 124.1 34.4767 123.629 34.4767C122.97 34.4767 122.445 34.7097 122.054 35.1759C121.663 35.6422 121.468 36.2943 121.468 37.1324C121.468 37.9706 121.663 38.6252 122.054 39.0959C122.445 39.567 122.97 39.8022 123.629 39.8022C124.561 39.8022 125.178 39.3926 125.479 38.5733H127.217C126.991 39.3643 126.567 39.9928 125.946 40.459C125.324 40.9252 124.552 41.1583 123.629 41.1583C122.885 41.1583 122.226 40.9912 121.651 40.6568C121.077 40.3226 120.627 39.8516 120.302 39.2442C119.977 38.6367 119.815 37.9328 119.815 37.1323C119.815 36.3318 119.977 35.6279 120.302 35.0204L120.302 35.0205Z" fill="black"/>
<path d="M130.706 34.5613V38.8698C130.706 39.1618 130.774 39.3714 130.911 39.4985C131.047 39.6255 131.28 39.6892 131.61 39.6892H132.599V41.0312H131.327C130.602 41.0312 130.047 40.8617 129.661 40.5227C129.274 40.1837 129.081 39.6328 129.081 38.8699V34.5614H128.163V33.2478H129.081V31.3125H130.706V33.2478H132.599V34.5614H130.706L130.706 34.5613Z" fill="black"/>
<path d="M141.131 33.2476V41.031H139.521V40.1128C139.267 40.433 138.935 40.6848 138.525 40.8686C138.115 41.0523 137.68 41.144 137.218 41.144C136.606 41.144 136.057 41.0169 135.573 40.7627C135.087 40.5084 134.706 40.1319 134.428 39.6325C134.15 39.1336 134.012 38.5307 134.012 37.8244V33.2476H135.608V37.5842C135.608 38.2812 135.782 38.8156 136.131 39.1875C136.479 39.5598 136.955 39.7455 137.557 39.7455C138.16 39.7455 138.638 39.5597 138.991 39.1875C139.344 38.8156 139.521 38.2812 139.521 37.5842V33.2476H141.131Z" fill="black"/>
<path d="M145.799 33.4525C146.19 33.2313 146.654 33.1206 147.191 33.1206V34.7875H146.781C146.15 34.7875 145.672 34.9477 145.347 35.2678C145.023 35.5881 144.86 36.1436 144.86 36.9346V41.0312H143.25V33.2478H144.86V34.3779C145.095 33.9823 145.409 33.674 145.799 33.4526V33.4525Z" fill="black"/>
<path d="M155.751 37.7395H149.804C149.851 38.361 150.082 38.8603 150.496 39.2368C150.911 39.6136 151.419 39.8019 152.022 39.8019C152.888 39.8019 153.5 39.4395 153.858 38.7141H155.596C155.36 39.4299 154.934 40.0161 154.318 40.4728C153.701 40.9297 152.935 41.1579 152.022 41.1579C151.278 41.1579 150.612 40.9908 150.023 40.6564C149.435 40.3223 148.973 39.8512 148.639 39.2438C148.304 38.6364 148.137 37.9324 148.137 37.1319C148.137 36.3314 148.3 35.6275 148.625 35.02C148.95 34.4126 149.406 33.9443 149.995 33.6145C150.583 33.2849 151.259 33.1201 152.022 33.1201C152.756 33.1201 153.411 33.2804 153.985 33.6004C154.56 33.9207 155.007 34.3703 155.327 34.9495C155.647 35.5287 155.808 36.1951 155.808 36.9483C155.808 37.2403 155.789 37.5041 155.751 37.7394L155.751 37.7395ZM154.127 36.4399C154.117 35.8466 153.905 35.3712 153.491 35.0131C153.077 34.6554 152.564 34.4764 151.951 34.4764C151.396 34.4764 150.92 34.653 150.525 35.0061C150.129 35.3593 149.894 35.8373 149.818 36.4399H154.127Z" fill="black"/>
<path d="M161.196 33.5162C161.644 32.7533 162.251 32.1578 163.019 31.7292C163.786 31.3008 164.627 31.0864 165.54 31.0864C166.586 31.0864 167.516 31.3431 168.33 31.8563C169.145 32.3697 169.736 33.0972 170.103 34.0387H168.168C167.913 33.5209 167.56 33.1347 167.108 32.8804C166.656 32.6261 166.133 32.499 165.54 32.499C164.89 32.499 164.311 32.6451 163.803 32.9369C163.294 33.2289 162.896 33.6481 162.609 34.1941C162.322 34.7404 162.178 35.3762 162.178 36.1011C162.178 36.826 162.322 37.4621 162.609 38.0082C162.896 38.5544 163.294 38.9757 163.803 39.2725C164.311 39.569 164.89 39.7174 165.54 39.7174C166.133 39.7174 166.656 39.5903 167.108 39.3361C167.56 39.0818 167.913 38.6958 168.168 38.1777H170.103C169.736 39.1196 169.144 39.8446 168.33 40.3532C167.515 40.8617 166.586 41.116 165.54 41.116C164.617 41.116 163.775 40.9019 163.012 40.4732C162.249 40.0448 161.644 39.4491 161.196 38.6863C160.749 37.9235 160.525 37.0618 160.525 36.1012C160.525 35.1406 160.749 34.2789 161.196 33.5162Z" fill="black"/>
<path d="M173.366 40.6568C172.773 40.3226 172.307 39.8516 171.968 39.2442C171.629 38.6367 171.459 37.9328 171.459 37.1323C171.459 36.3413 171.633 35.6398 171.982 35.0276C172.33 34.4154 172.806 33.9447 173.409 33.6149C174.011 33.2854 174.685 33.1206 175.429 33.1206C176.173 33.1206 176.846 33.2855 177.449 33.6149C178.051 33.9447 178.527 34.4154 178.875 35.0276C179.224 35.6399 179.398 36.3413 179.398 37.1323C179.398 37.9233 179.219 38.6251 178.861 39.2371C178.503 39.8494 178.016 40.3225 177.399 40.6567C176.782 40.991 176.102 41.1582 175.358 41.1582C174.624 41.1582 173.96 40.9911 173.366 40.6567L173.366 40.6568ZM176.523 39.4631C176.886 39.2654 177.18 38.9688 177.406 38.5733C177.632 38.1777 177.745 37.6974 177.745 37.1323C177.745 36.5672 177.637 36.0893 177.42 35.6985C177.203 35.3079 176.916 35.0134 176.559 34.8156C176.201 34.6179 175.815 34.5191 175.4 34.5191C174.986 34.5191 174.602 34.6179 174.249 34.8156C173.896 35.0134 173.615 35.3079 173.408 35.6985C173.201 36.0893 173.098 36.5672 173.098 37.1323C173.098 37.9706 173.312 38.6179 173.74 39.0746C174.169 39.5315 174.708 39.7597 175.358 39.7597C175.772 39.7597 176.161 39.6609 176.523 39.4631Z" fill="black"/>
<path d="M192.062 33.502C192.547 33.7563 192.928 34.1331 193.206 34.6322C193.484 35.1314 193.623 35.734 193.623 36.4403V41.0312H192.026V36.6804C192.026 35.9836 191.852 35.4492 191.504 35.0771C191.155 34.7051 190.68 34.5192 190.077 34.5192C189.474 34.5192 188.996 34.7052 188.643 35.0771C188.29 35.4492 188.113 35.9836 188.113 36.6804V41.0312H186.517V36.6804C186.517 35.9836 186.343 35.4492 185.994 35.0771C185.646 34.7051 185.17 34.5192 184.568 34.5192C183.965 34.5192 183.487 34.7052 183.134 35.0771C182.781 35.4492 182.604 35.9836 182.604 36.6804V41.0312H180.994V33.2478H182.604V34.1376C182.868 33.8176 183.202 33.5679 183.607 33.389C184.012 33.2103 184.445 33.1206 184.907 33.1206C185.528 33.1206 186.084 33.2525 186.573 33.5161C187.063 33.7799 187.44 34.1612 187.704 34.6603C187.939 34.1894 188.306 33.8151 188.805 33.5373C189.305 33.2596 189.841 33.1206 190.416 33.1206C191.028 33.1206 191.576 33.2477 192.062 33.5019L192.062 33.502Z" fill="black"/>
<path d="M198.397 33.4879C198.868 33.2431 199.4 33.1206 199.994 33.1206C200.672 33.1206 201.291 33.2879 201.851 33.6221C202.412 33.9565 202.852 34.4251 203.172 35.0277C203.492 35.6305 203.652 36.3226 203.652 37.1042C203.652 37.8858 203.492 38.5853 203.172 39.2019C202.852 39.8189 202.412 40.2991 201.851 40.6429C201.291 40.9867 200.672 41.1584 199.994 41.1584C199.401 41.1584 198.873 41.0384 198.412 40.7983C197.95 40.5581 197.573 40.2593 197.282 39.9012V44.7324H195.671V33.2479H197.282V34.3921C197.555 34.0342 197.926 33.7329 198.397 33.488V33.4879ZM201.682 35.7128C201.46 35.3221 201.168 35.0255 200.806 34.8228C200.443 34.6205 200.055 34.5192 199.641 34.5192C199.236 34.5192 198.852 34.6229 198.489 34.8299C198.127 35.0372 197.835 35.3385 197.614 35.734C197.392 36.1295 197.282 36.5957 197.282 37.1324C197.282 37.6692 197.392 38.1379 197.614 38.538C197.835 38.9384 198.127 39.2421 198.489 39.4491C198.852 39.6565 199.236 39.76 199.641 39.76C200.055 39.76 200.443 39.6541 200.806 39.4421C201.168 39.2302 201.46 38.9219 201.682 38.5169C201.903 38.1121 202.014 37.641 202.014 37.1043C202.014 36.5676 201.903 36.1037 201.682 35.7129V35.7128Z" fill="black"/>
<path d="M205.199 35.0277C205.524 34.4251 205.967 33.9566 206.527 33.6221C207.087 33.288 207.706 33.1206 208.385 33.1206C208.997 33.1206 209.531 33.2406 209.988 33.4807C210.445 33.7208 210.809 34.02 211.083 34.3778V33.2477H212.707V41.0311H211.083V39.8728C210.809 40.2401 210.438 40.5463 209.967 40.791C209.496 41.0358 208.959 41.1583 208.356 41.1583C207.688 41.1583 207.075 40.9866 206.52 40.6428C205.964 40.2991 205.524 39.8188 205.199 39.2018C204.874 38.5852 204.712 37.8859 204.712 37.1041C204.712 36.3223 204.874 35.6304 205.199 35.0276L205.199 35.0277ZM210.751 35.734C210.529 35.3385 210.24 35.0372 209.882 34.8299C209.524 34.6229 209.138 34.5192 208.724 34.5192C208.309 34.5192 207.923 34.6204 207.565 34.8228C207.207 35.0255 206.918 35.3221 206.696 35.7128C206.475 36.1036 206.364 36.5675 206.364 37.1042C206.364 37.6409 206.475 38.112 206.696 38.5168C206.918 38.9218 207.21 39.2301 207.572 39.442C207.935 39.654 208.319 39.7598 208.724 39.7598C209.138 39.7598 209.524 39.6564 209.882 39.449C210.24 39.242 210.529 38.9384 210.751 38.5379C210.972 38.1378 211.083 37.6692 211.083 37.1323C211.083 36.5955 210.972 36.1294 210.751 35.7339L210.751 35.734Z" fill="black"/>
<path d="M220.399 33.502C220.884 33.7563 221.263 34.1331 221.536 34.6322C221.809 35.1314 221.945 35.734 221.945 36.4403V41.0312H220.349V36.6804C220.349 35.9836 220.175 35.4492 219.827 35.0771C219.478 34.7051 219.002 34.5192 218.4 34.5192C217.797 34.5192 217.319 34.7052 216.966 35.0771C216.613 35.4492 216.436 35.9836 216.436 36.6804V41.0312H214.826V33.2478H216.436V34.1376C216.7 33.8176 217.037 33.5679 217.446 33.389C217.856 33.2103 218.292 33.1206 218.753 33.1206C219.365 33.1206 219.914 33.2477 220.399 33.5019V33.502Z" fill="black"/>
<path d="M231 33.2476L226.225 44.6897H224.559L226.141 40.9039L223.075 33.2476H224.869L227.059 39.1805L229.333 33.2476H231Z" fill="black"/>
</svg>
