<svg width="281" height="66" viewBox="0 0 281 66" fill="none" xmlns="http://www.w3.org/2000/svg">
<circle cx="32.5574" cy="32.5574" r="32.5574" fill="white"/>
<path d="M63.051 25.2058L57.664 26.7906L33.3675 28.5213L34.7611 1.27281C34.0329 1.2225 33.2983 1.19482 32.5575 1.19482C24.2549 1.19482 16.7083 4.42228 11.0986 9.68859L20.0766 18.4389L14.5122 40.0513L4.211 45.9918C8.00445 53.9812 15.0744 60.1103 23.6852 62.646L25.7328 56.0326L52.6568 46.5741L58.4513 50.2557C61.9002 45.2183 63.9202 39.1243 63.9202 32.5587C63.9202 30.0268 63.6183 27.5654 63.051 25.207V25.2058Z" fill="#EFEFEF"/>
<path d="M57.6639 26.7895L63.0509 25.2047C59.9077 12.1225 48.5651 2.23137 34.761 1.27295L33.3674 28.5202L57.6639 26.7895Z" fill="#196BD1"/>
<path d="M20.0765 18.4388L11.0985 9.68848C5.00334 15.4101 1.19479 23.5379 1.19479 32.5574C1.19479 37.3646 2.27774 41.919 4.21094 45.9904L14.5121 40.0499L20.0765 18.4376V18.4388Z" fill="#196BD1"/>
<path d="M25.7329 56.0312L23.6852 62.6446C26.4989 63.4735 29.476 63.92 32.5576 63.92C43.3128 63.92 52.8015 58.5053 58.4514 50.2543L52.6569 46.5728L25.7329 56.0312Z" fill="#196BD1"/>
<path d="M53.0063 37.0514L58.9858 38.4991C59.4134 36.5873 59.6411 34.5987 59.6411 32.5573C59.6411 26.603 57.7179 21.099 54.4628 16.6289L49.7801 20.2047L46.2256 17.454L26.2257 12.848L24.3164 6.74902C17.0175 9.07717 11.0632 14.4152 7.91251 21.304L12.7386 23.368L18.1382 47.8091L14.0354 52.3183C18.8791 56.8601 25.3918 59.6423 32.5561 59.6423C33.5787 59.6423 34.5874 59.5832 35.5811 59.4738L34.7069 52.5899L53.0063 37.0514Z" fill="#EFEFEF"/>
<path d="M46.2267 17.454L49.7812 20.2048L54.4639 16.6289C49.5397 9.86712 41.5616 5.47119 32.5572 5.47119C29.6845 5.47119 26.9161 5.92022 24.3188 6.74909L26.2281 12.8481L46.228 17.454H46.2267Z" fill="#B82762"/>
<path d="M12.7398 23.3682L7.91373 21.3042C6.34654 24.7316 5.47113 28.5414 5.47113 32.5563C5.47113 40.3507 8.76525 47.3754 14.0353 52.3172L18.1382 47.8081L12.7386 23.367L12.7398 23.3682Z" fill="#B82762"/>
<path d="M58.987 38.499L53.0075 37.0513L34.7082 52.5898L35.5823 59.4737C47.135 58.1895 56.4928 49.6416 58.9883 38.499H58.987Z" fill="#B82762"/>
<path d="M49.1021 31.2407L54.8778 30.8206C54.3194 23.5494 50.287 17.2517 44.4383 13.5815L41.3429 18.4391L22.7957 18.7938L19.6362 14.2733C14.1498 18.1573 10.4884 24.45 10.1916 31.6118H15.3774L25.7226 46.4082L22.8096 52.716C25.7565 54.1436 29.0632 54.9448 32.5573 54.9448C36.0514 54.9448 39.6424 54.0731 42.6837 52.5286L39.7669 47.2535L49.1021 31.242V31.2407Z" fill="#EFEFEF"/>
<path d="M41.3429 18.439L44.4383 13.5815C40.9945 11.4206 36.9231 10.1704 32.5574 10.1704C27.7451 10.1704 23.2876 11.6898 19.6362 14.2733L22.7958 18.7937L41.3429 18.439Z" fill="#ED1B24"/>
<path d="M15.3774 31.6113H10.1916C10.179 31.9245 10.1702 32.2402 10.1702 32.5572C10.1702 41.427 15.3296 49.0919 22.8096 52.7156L25.7226 46.4078L15.3774 31.6113Z" fill="#ED1B24"/>
<path d="M54.9445 32.5573C54.9445 31.9724 54.9219 31.3939 54.8778 30.8203L49.1021 31.2404L39.7669 47.2519L42.6837 52.527C49.9587 48.8304 54.9445 41.2762 54.9445 32.556V32.5573Z" fill="#ED1B24"/>
<path d="M44.1554 28.6746L49.6292 26.6584C47.4156 20.2513 41.699 15.4793 34.7686 14.6328L34.2026 20.7305L22.9204 24.3781L18.8213 20.8337C16.1259 23.9882 14.4983 28.0822 14.4983 32.5574C14.4983 34.9031 14.9461 37.1445 15.7598 39.201L21.3746 36.5886L30.3387 43.9767L28.9929 50.2644C30.145 50.4945 31.3374 50.6165 32.5574 50.6165C38.3809 50.6165 43.5605 47.8582 46.8634 43.5793L41.9933 39.6487L44.1567 28.6746H44.1554Z" fill="#EFEFEF"/>
<path d="M34.2024 20.7308L34.7684 14.6331C34.0439 14.5451 33.3056 14.4985 32.556 14.4985C27.057 14.4985 22.1328 16.9575 18.8198 20.834L22.9189 24.3784L34.2012 20.7308H34.2024Z" fill="#F7BA00"/>
<path d="M49.6305 26.6582L44.1566 28.6744L41.9933 39.6485L46.8634 43.5791C49.2167 40.529 50.6166 36.7078 50.6166 32.5572C50.6166 30.4919 50.2682 28.5071 49.6305 26.6582Z" fill="#F7BA00"/>
<path d="M21.3743 36.5884L15.7596 39.2008C17.9834 44.818 22.9415 49.0529 28.9927 50.2642L30.3385 43.9766L21.3743 36.5884Z" fill="#F7BA00"/>
<path d="M39.1483 28.5202L43.9795 25.6223C41.635 21.7697 37.3963 19.1963 32.5576 19.1963C31.418 19.1963 30.3112 19.3397 29.2547 19.6076L30.6483 24.7179L25.5166 28.9529L20.8427 26.1279C19.7937 28.0359 19.1962 30.227 19.1962 32.5576C19.1962 36.0404 20.5295 39.2125 22.713 41.5897L27.0624 37.3297L32.8117 39.8024V45.914C38.81 45.802 43.8424 41.7369 45.4108 36.2153L39.9206 34.8569L39.1483 28.5202Z" fill="#EFEFEF"/>
<path d="M30.6482 24.7178L29.2546 19.6074C25.6335 20.5281 22.6022 22.9292 20.8439 26.1265L25.5178 28.9514L30.6495 24.7165L30.6482 24.7178Z" fill="#AD0101"/>
<path d="M43.979 25.6219L39.1479 28.5198L39.9202 34.8565L45.4104 36.2149C45.7412 35.0527 45.9173 33.8251 45.9173 32.556C45.9173 30.0165 45.2091 27.6419 43.979 25.6206V25.6219Z" fill="#AD0101"/>
<path d="M27.0621 37.3306L22.7127 41.5907C25.1553 44.2509 28.6608 45.9187 32.5574 45.9187C32.6429 45.9187 32.7272 45.9174 32.8114 45.9149V39.8034L27.0621 37.3306Z" fill="#AD0101"/>
<path d="M41.3431 32.5575C41.3431 37.4097 37.4096 41.3431 32.5575 41.3431C27.7054 41.3431 23.7719 37.4097 23.7719 32.5575C23.7719 27.7054 27.7054 23.772 32.5575 23.772C37.4096 23.772 41.3431 27.7054 41.3431 32.5575Z" fill="#EFEFEF"/>
<path d="M27.4976 34.2014H26.9283V30.9126H27.4976V34.2014Z" fill="#A72223"/>
<path d="M28.2908 34.2014V30.9126H29.418C29.7899 30.9126 30.073 30.9872 30.2672 31.1362C30.4614 31.2853 30.5587 31.5074 30.5587 31.8026C30.5587 31.9532 30.518 32.0886 30.4367 32.2091C30.3554 32.3296 30.2364 32.4229 30.0798 32.4892C30.2576 32.5375 30.3949 32.6281 30.4921 32.7614C30.5892 32.8947 30.6378 33.0547 30.6378 33.2414C30.6378 33.5502 30.5387 33.7874 30.3407 33.9529C30.1427 34.1185 29.8592 34.2014 29.4903 34.2014H28.2908ZM28.8623 32.2972H29.4225C29.6002 32.2972 29.7391 32.2569 29.8392 32.1763C29.9393 32.0958 29.9894 31.9817 29.9894 31.834C29.9894 31.6714 29.9431 31.5539 29.8505 31.4816C29.758 31.4094 29.6137 31.3733 29.418 31.3733H28.8623V32.2972ZM28.8623 32.7174V33.7451H29.497C29.6762 33.7451 29.8162 33.7007 29.9171 33.6118C30.018 33.523 30.0684 33.3995 30.0684 33.2414C30.0684 32.8995 29.8937 32.7249 29.5443 32.7174H28.8622H28.8623Z" fill="#EF9711"/>
<path d="M31.2742 34.2014V30.9126H32.2456C32.5363 30.9126 32.7941 30.9774 33.0192 31.1069C33.2444 31.2363 33.4187 31.4201 33.5422 31.6581C33.6656 31.8961 33.7275 32.1686 33.7275 32.4758V32.6408C33.7275 32.9525 33.6654 33.2265 33.5411 33.4629C33.4168 33.6993 33.2399 33.8816 33.0103 34.0096C32.7806 34.1377 32.5175 34.2016 32.2208 34.2016H31.2743L31.2742 34.2014ZM31.8457 31.3734V33.7451H32.2184C32.5181 33.7451 32.7481 33.6514 32.9086 33.464C33.0689 33.2765 33.1506 33.0073 33.1536 32.6564V32.4735C33.1536 32.1165 33.076 31.844 32.9209 31.6557C32.7658 31.4675 32.5407 31.3734 32.2455 31.3734H31.8456H31.8457Z" fill="#E32031"/>
<path d="M34.8684 34.2014H34.2991V30.9126H34.8684V34.2014Z" fill="#B82762"/>
<path d="M38.1709 33.1306C38.1377 33.4815 38.0082 33.7552 37.7823 33.9516C37.5565 34.1481 37.256 34.2465 36.881 34.2465C36.619 34.2465 36.3882 34.1843 36.1887 34.0602C35.9891 33.9359 35.8352 33.7593 35.7268 33.5304C35.6183 33.3016 35.5619 33.0357 35.5573 32.733V32.4258C35.5573 32.1157 35.6123 31.8423 35.7222 31.6059C35.8322 31.3694 35.9899 31.1873 36.1955 31.0592C36.4012 30.9312 36.6387 30.8672 36.9082 30.8672C37.2711 30.8672 37.5632 30.9654 37.7846 31.162C38.006 31.3585 38.1348 31.6367 38.1709 31.9967H37.6016C37.5746 31.7603 37.5056 31.5898 37.395 31.4851C37.2843 31.3805 37.122 31.3282 36.9082 31.3282C36.6597 31.3282 36.4689 31.419 36.3355 31.6006C36.2022 31.7822 36.1342 32.0486 36.1311 32.3998V32.6913C36.1311 33.047 36.1947 33.3183 36.3221 33.5054C36.4492 33.6923 36.6356 33.7857 36.8812 33.7857C37.1055 33.7857 37.2742 33.7354 37.387 33.6344C37.5 33.5335 37.5715 33.3656 37.6016 33.1307H38.1709V33.1306Z" fill="#0B4887"/>
<path d="M75.3999 17.3481V29.2909H73.4409V17.3481H75.3999Z" fill="white"/>
<path d="M84.7564 20.132C85.3463 20.4412 85.8073 20.8996 86.1398 21.5067C86.472 22.114 86.6382 22.847 86.6382 23.7062V29.2908H84.6964V23.9982C84.6964 23.1506 84.4842 22.5006 84.0606 22.0479C83.6366 21.5954 83.058 21.3692 82.3251 21.3692C81.5922 21.3692 81.0105 21.5955 80.581 22.0479C80.1513 22.5006 79.9366 23.1506 79.9366 23.9982V29.2908H77.9776V19.8227H79.9366V20.9051C80.2572 20.5158 80.6669 20.2121 81.1652 19.9945C81.6635 19.777 82.1933 19.668 82.7548 19.668C83.4993 19.668 84.1665 19.8225 84.7567 20.1318L84.7564 20.132Z" fill="white"/>
<path d="M89.0693 21.9877C89.4645 21.2546 90.0028 20.6847 90.6845 20.2779C91.366 19.8715 92.1249 19.6678 92.9615 19.6678C93.58 19.6678 94.1901 19.8025 94.7915 20.0716C95.3929 20.341 95.8711 20.6988 96.2263 21.1456V16.5747H98.2025V29.2907H96.2263V27.8644C95.9054 28.3228 95.4617 28.7008 94.8945 28.9986C94.3275 29.2964 93.6771 29.4454 92.9442 29.4454C92.1194 29.4454 91.366 29.2365 90.6845 28.8183C90.0028 28.4002 89.4645 27.816 89.0693 27.0654C88.674 26.3153 88.4763 25.4647 88.4763 24.5137C88.4763 23.5627 88.674 22.721 89.0693 21.9877ZM95.8224 22.8469C95.553 22.3658 95.2008 21.9992 94.7656 21.7471C94.33 21.4953 93.8605 21.3691 93.3565 21.3691C92.8525 21.3691 92.3828 21.4922 91.9476 21.7385C91.512 21.985 91.1597 22.3459 90.8908 22.8211C90.6214 23.2965 90.4869 23.8608 90.4869 24.5137C90.4869 25.1666 90.6214 25.7396 90.8908 26.232C91.1598 26.7247 91.515 27.0998 91.9562 27.3575C92.3971 27.6153 92.864 27.7441 93.3567 27.7441C93.8606 27.7441 94.3302 27.6182 94.7657 27.3661C95.2009 27.1142 95.5532 26.7448 95.8225 26.2577C96.0916 25.7709 96.2263 25.2009 96.2263 24.5479C96.2263 23.8948 96.0916 23.3278 95.8225 22.8467L95.8224 22.8469Z" fill="white"/>
<path d="M100.883 18.2075C100.643 17.967 100.522 17.6691 100.522 17.314C100.522 16.9588 100.643 16.661 100.883 16.4204C101.124 16.1798 101.421 16.0596 101.777 16.0596C102.12 16.0596 102.413 16.1798 102.653 16.4204C102.894 16.6609 103.014 16.959 103.014 17.314C103.014 17.6689 102.894 17.967 102.653 18.2075C102.413 18.4481 102.12 18.5683 101.777 18.5683C101.422 18.5683 101.124 18.4481 100.883 18.2075ZM102.739 19.8228V29.291H100.78V19.8228H102.739Z" fill="white"/>
<path d="M105.256 21.9878C105.651 21.2548 106.19 20.6849 106.871 20.278C107.553 19.8716 108.306 19.668 109.131 19.668C109.876 19.668 110.526 19.814 111.081 20.1061C111.637 20.3981 112.081 20.762 112.413 21.1973V19.8225H114.389V29.2907H112.413V27.8816C112.081 28.3285 111.628 28.7009 111.056 28.9987C110.483 29.2964 109.83 29.4454 109.097 29.4454C108.283 29.4454 107.539 29.2365 106.863 28.8183C106.187 28.4002 105.651 27.816 105.256 27.0655C104.861 26.3153 104.663 25.4647 104.663 24.5137C104.663 23.5627 104.861 22.721 105.256 21.9877L105.256 21.9878ZM112.009 22.847C111.74 22.3659 111.388 21.9994 110.952 21.7472C110.517 21.4954 110.047 21.3692 109.543 21.3692C109.039 21.3692 108.57 21.4924 108.134 21.7386C107.699 21.9852 107.347 22.346 107.078 22.8212C106.808 23.2967 106.674 23.8609 106.674 24.5138C106.674 25.1667 106.808 25.7398 107.078 26.2322C107.347 26.7249 107.702 27.0999 108.143 27.3576C108.584 27.6155 109.051 27.7443 109.544 27.7443C110.048 27.7443 110.517 27.6184 110.953 27.3662C111.388 27.1144 111.74 26.745 112.009 26.2578C112.278 25.7711 112.413 25.2011 112.413 24.548C112.413 23.895 112.278 23.328 112.009 22.8469L112.009 22.847Z" fill="white"/>
<path d="M123.746 20.132C124.335 20.4412 124.796 20.8996 125.129 21.5067C125.461 22.114 125.627 22.847 125.627 23.7062V29.2908H123.686V23.9982C123.686 23.1506 123.473 22.5006 123.05 22.0479C122.626 21.5954 122.047 21.3692 121.314 21.3692C120.581 21.3692 120 21.5955 119.57 22.0479C119.14 22.5006 118.926 23.1506 118.926 23.9982V29.2908H116.967V19.8227H118.926V20.9051C119.246 20.5158 119.656 20.2121 120.154 19.9945C120.653 19.777 121.182 19.668 121.744 19.668C122.488 19.668 123.156 19.8225 123.746 20.1318L123.746 20.132Z" fill="white"/>
<path d="M140.611 24.1701C141.058 24.7315 141.281 25.3673 141.281 26.0775C141.281 26.6847 141.124 27.2318 140.809 27.7185C140.494 28.2056 140.038 28.5893 139.443 28.8698C138.847 29.1506 138.154 29.2909 137.364 29.2909H132.587V17.3481H137.14C137.954 17.3481 138.652 17.4856 139.237 17.7606C139.821 18.0355 140.262 18.4049 140.56 18.8689C140.858 19.3329 141.007 19.8515 141.007 20.424C141.007 21.1114 140.823 21.6845 140.457 22.1424C140.09 22.6007 139.598 22.9388 138.979 23.1563C139.621 23.2709 140.165 23.6091 140.611 24.1702L140.611 24.1701ZM134.545 22.3658H136.968C137.61 22.3658 138.111 22.2198 138.472 21.9276C138.833 21.6355 139.013 21.2145 139.013 20.6646C139.013 20.1263 138.833 19.7052 138.472 19.4016C138.111 19.0982 137.61 18.9463 136.968 18.9463H134.545V22.3658ZM138.755 27.2115C139.134 26.8909 139.323 26.4441 139.323 25.8712C139.323 25.287 139.122 24.823 138.721 24.4794C138.32 24.1357 137.787 23.9638 137.123 23.9638H134.546V27.6926H137.192C137.856 27.6926 138.377 27.5324 138.755 27.2115Z" fill="white"/>
<path d="M143.352 21.9878C143.747 21.2548 144.285 20.6849 144.967 20.278C145.648 19.8716 146.402 19.668 147.227 19.668C147.971 19.668 148.621 19.814 149.177 20.1061C149.733 20.3981 150.176 20.762 150.509 21.1973V19.8225H152.485V29.2907H150.509V27.8816C150.176 28.3285 149.724 28.7009 149.151 28.9987C148.578 29.2964 147.925 29.4454 147.192 29.4454C146.379 29.4454 145.634 29.2365 144.958 28.8183C144.282 28.4002 143.747 27.816 143.352 27.0655C142.957 26.3153 142.759 25.4647 142.759 24.5137C142.759 23.5627 142.957 22.721 143.352 21.9877L143.352 21.9878ZM150.105 22.847C149.836 22.3659 149.483 21.9994 149.048 21.7472C148.613 21.4954 148.143 21.3692 147.639 21.3692C147.135 21.3692 146.665 21.4924 146.23 21.7386C145.795 21.9852 145.442 22.346 145.173 22.8212C144.904 23.2967 144.769 23.8609 144.769 24.5138C144.769 25.1667 144.904 25.7398 145.173 26.2322C145.442 26.7249 145.798 27.0999 146.239 27.3576C146.68 27.6155 147.147 27.7443 147.639 27.7443C148.143 27.7443 148.613 27.6184 149.048 27.3662C149.484 27.1144 149.836 26.745 150.105 26.2578C150.374 25.7711 150.509 25.2011 150.509 24.548C150.509 23.895 150.374 23.328 150.105 22.8469L150.105 22.847Z" fill="white"/>
<path d="M161.842 20.132C162.431 20.4412 162.892 20.8996 163.225 21.5067C163.557 22.114 163.723 22.847 163.723 23.7062V29.2908H161.781V23.9982C161.781 23.1506 161.569 22.5006 161.146 22.0479C160.722 21.5954 160.143 21.3692 159.41 21.3692C158.677 21.3692 158.095 21.5955 157.666 22.0479C157.236 22.5006 157.021 23.1506 157.021 23.9982V29.2908H155.062V19.8227H157.021V20.9051C157.342 20.5158 157.752 20.2121 158.25 19.9945C158.749 19.777 159.278 19.668 159.84 19.668C160.584 19.668 161.251 19.8227 161.842 20.132Z" fill="white"/>
<path d="M169.96 24.5652L174.325 29.2907H171.679L168.173 25.2181V29.2907H166.214V16.5747H168.173V23.9636L171.61 19.8224H174.325L169.96 24.5652Z" fill="white"/>
<path d="M177.169 29.0419C176.579 28.7729 176.112 28.4061 175.768 27.9422C175.424 27.4784 175.241 26.96 175.218 26.3871H177.246C177.28 26.7882 177.472 27.1234 177.822 27.3923C178.171 27.6618 178.609 27.7962 179.136 27.7962C179.686 27.7962 180.113 27.6904 180.416 27.4784C180.72 27.2664 180.872 26.9945 180.872 26.6621C180.872 26.3073 180.703 26.0435 180.365 25.8717C180.027 25.6999 179.491 25.5108 178.758 25.3046C178.048 25.11 177.469 24.9209 177.023 24.7375C176.576 24.5544 176.189 24.2737 175.863 23.8956C175.536 23.5175 175.373 23.0192 175.373 22.4006C175.373 21.8966 175.522 21.4355 175.82 21.0173C176.118 20.5992 176.544 20.2698 177.1 20.0292C177.656 19.7887 178.294 19.6685 179.016 19.6685C180.093 19.6685 180.96 19.9406 181.619 20.4846C182.278 21.0289 182.63 21.7707 182.676 22.7099H180.717C180.683 22.2861 180.511 21.9481 180.202 21.696C179.892 21.4441 179.474 21.3179 178.947 21.3179C178.432 21.3179 178.036 21.4153 177.761 21.61C177.486 21.8049 177.349 22.0628 177.349 22.3832C177.349 22.6353 177.441 22.8471 177.624 23.019C177.807 23.1909 178.03 23.3257 178.294 23.4229C178.558 23.5203 178.947 23.6435 179.463 23.7923C180.15 23.9757 180.714 24.1619 181.155 24.3508C181.596 24.5398 181.977 24.8177 182.298 25.1842C182.619 25.551 182.785 26.0377 182.796 26.6448C182.796 27.1834 182.647 27.6645 182.349 28.0883C182.051 28.5123 181.63 28.8444 181.086 29.0849C180.542 29.3255 179.904 29.4458 179.171 29.4458C178.426 29.4458 177.759 29.3111 177.169 29.0419Z" fill="white"/>
<path d="M185.219 17.3481H187.35L185.546 21.4379H184.171L185.219 17.3481Z" fill="white"/>
<path d="M200.779 18.0784C201.735 18.5654 202.474 19.2641 202.996 20.1749C203.517 21.0855 203.778 22.1482 203.778 23.3625C203.778 24.5767 203.517 25.6307 202.996 26.5243C202.474 27.4178 201.735 28.1025 200.779 28.5777C199.822 29.0531 198.708 29.2909 197.437 29.2909H193.536V17.3481H197.437C198.708 17.3481 199.822 17.5917 200.779 18.0784ZM200.65 26.5586C201.395 25.8025 201.767 24.7372 201.767 23.3625C201.767 21.9764 201.395 20.8939 200.65 20.1147C199.905 19.3359 198.834 18.9463 197.437 18.9463H195.495V27.6927H197.437C198.834 27.6927 199.905 27.3148 200.65 26.5586Z" fill="white"/>
<path d="M205.822 18.2075C205.582 17.967 205.462 17.6691 205.462 17.314C205.462 16.9588 205.582 16.661 205.822 16.4204C206.063 16.1798 206.361 16.0596 206.716 16.0596C207.06 16.0596 207.352 16.1798 207.592 16.4204C207.833 16.6609 207.953 16.959 207.953 17.314C207.953 17.6689 207.833 17.967 207.592 18.2075C207.352 18.4481 207.06 18.5683 206.716 18.5683C206.361 18.5683 206.063 18.4481 205.822 18.2075ZM207.678 19.8228V29.291H205.719V19.8228H207.678Z" fill="white"/>
<path d="M216.021 20.1062C216.588 20.3982 217.031 20.7621 217.352 21.1974V19.8227H219.329V29.4455C219.329 30.3161 219.145 31.0922 218.779 31.7739C218.412 32.4554 217.882 32.9911 217.189 33.3806C216.496 33.77 215.668 33.9649 214.706 33.9649C213.423 33.9649 212.358 33.6641 211.51 33.0628C210.662 32.4613 210.181 31.6451 210.067 30.614H212.008C212.157 31.1064 212.475 31.5047 212.962 31.8083C213.449 32.1117 214.03 32.2637 214.706 32.2637C215.497 32.2637 216.135 32.0231 216.622 31.542C217.109 31.0609 217.352 30.362 217.352 29.4455V27.8646C217.02 28.3115 216.57 28.6869 216.003 28.9902C215.436 29.2936 214.792 29.4455 214.07 29.4455C213.245 29.4455 212.492 29.2366 211.811 28.8184C211.129 28.4003 210.59 27.8161 210.195 27.0656C209.8 26.3154 209.602 25.4648 209.602 24.5138C209.602 23.5628 209.8 22.7211 210.195 21.9878C210.59 21.2548 211.129 20.6849 211.811 20.278C212.492 19.8716 213.245 19.668 214.07 19.668C214.803 19.668 215.454 19.814 216.021 20.1061V20.1062ZM216.949 22.847C216.679 22.3659 216.327 21.9994 215.892 21.7472C215.456 21.4954 214.987 21.3692 214.483 21.3692C213.979 21.3692 213.509 21.4924 213.074 21.7386C212.638 21.9852 212.286 22.346 212.017 22.8212C211.748 23.2967 211.613 23.8609 211.613 24.5138C211.613 25.1667 211.748 25.7398 212.017 26.2322C212.286 26.7248 212.641 27.0999 213.082 27.3576C213.523 27.6155 213.99 27.7443 214.483 27.7443C214.987 27.7443 215.456 27.6184 215.892 27.3662C216.327 27.1144 216.68 26.745 216.949 26.2578C217.218 25.7711 217.353 25.2011 217.353 24.548C217.353 23.895 217.218 23.328 216.949 22.8469L216.949 22.847Z" fill="white"/>
<path d="M222.009 18.2075C221.769 17.967 221.648 17.6691 221.648 17.314C221.648 16.9588 221.769 16.661 222.009 16.4204C222.25 16.1798 222.548 16.0596 222.903 16.0596C223.246 16.0596 223.539 16.1798 223.779 16.4204C224.02 16.6609 224.14 16.959 224.14 17.314C224.14 17.6689 224.02 17.967 223.779 18.2075C223.539 18.4481 223.247 18.5683 222.903 18.5683C222.548 18.5683 222.25 18.4481 222.009 18.2075ZM223.865 19.8228V29.291H221.906V19.8228H223.865Z" fill="white"/>
<path d="M228.728 21.4208V26.6618C228.728 27.017 228.811 27.272 228.977 27.4266C229.143 27.5811 229.427 27.6586 229.828 27.6586H231.03V29.2911H229.484C228.602 29.2911 227.926 29.0848 227.456 28.6725C226.986 28.2601 226.752 27.59 226.752 26.662V21.4209H225.635V19.8229H226.752V17.4688H228.728V19.8229H231.03V21.4209H228.728L228.728 21.4208Z" fill="white"/>
<path d="M232.774 21.9878C233.17 21.2548 233.708 20.6849 234.39 20.278C235.071 19.8716 235.825 19.668 236.649 19.668C237.394 19.668 238.044 19.814 238.6 20.1061C239.155 20.3981 239.599 20.762 239.932 21.1973V19.8225H241.908V29.2907H239.932V27.8816C239.599 28.3285 239.147 28.7009 238.574 28.9987C238.001 29.2964 237.348 29.4454 236.615 29.4454C235.802 29.4454 235.057 29.2365 234.381 28.8183C233.705 28.4002 233.17 27.816 232.775 27.0655C232.379 26.3153 232.182 25.4647 232.182 24.5137C232.182 23.5627 232.379 22.721 232.775 21.9877L232.774 21.9878ZM239.528 22.847C239.258 22.3659 238.906 21.9994 238.471 21.7472C238.035 21.4954 237.566 21.3692 237.062 21.3692C236.558 21.3692 236.088 21.4924 235.653 21.7386C235.217 21.9852 234.865 22.346 234.596 22.8212C234.327 23.2967 234.192 23.8609 234.192 24.5138C234.192 25.1667 234.327 25.7398 234.596 26.2322C234.865 26.7249 235.22 27.0999 235.661 27.3576C236.102 27.6155 236.569 27.7443 237.062 27.7443C237.566 27.7443 238.035 27.6184 238.471 27.3662C238.906 27.1144 239.259 26.745 239.528 26.2578C239.797 25.7711 239.932 25.2011 239.932 24.548C239.932 23.895 239.797 23.328 239.528 22.8469L239.528 22.847Z" fill="white"/>
<path d="M246.444 16.5747V29.2907H244.485V16.5747H246.444Z" fill="white"/>
<path d="M75.3999 37.9697V49.9124H73.4409V37.9697H75.3999Z" fill="white"/>
<path d="M84.7564 40.7535C85.3463 41.0628 85.8073 41.5212 86.1398 42.1283C86.472 42.7355 86.6382 43.4686 86.6382 44.3278V49.9124H84.6964V44.6198C84.6964 43.7722 84.4842 43.1222 84.0606 42.6695C83.6366 42.217 83.058 41.9908 82.3251 41.9908C81.5922 41.9908 81.0105 42.2171 80.581 42.6695C80.1513 43.1222 79.9366 43.7722 79.9366 44.6198V49.9124H77.9776V40.4443H79.9366V41.5267C80.2572 41.1374 80.6669 40.8337 81.1652 40.6161C81.6635 40.3986 82.1933 40.2896 82.7548 40.2896C83.4993 40.2896 84.1665 40.4441 84.7567 40.7534L84.7564 40.7535Z" fill="white"/>
<path d="M93.099 42.0421H91.3461V49.9123H89.37V42.0421H88.253V40.4441H89.37V39.7739C89.37 38.6857 89.6592 37.8923 90.2378 37.394C90.8161 36.8957 91.7241 36.6465 92.9614 36.6465V38.279C92.3656 38.279 91.9475 38.3908 91.7069 38.614C91.4663 38.8374 91.346 39.2242 91.346 39.7741V40.4442H93.0988V42.0422L93.099 42.0421Z" fill="white"/>
<path d="M97.9356 40.6933C98.4108 40.4243 98.9753 40.2896 99.6282 40.2896V42.3172H99.1299C98.3622 42.3172 97.7809 42.5122 97.3858 42.9014C96.9905 43.2911 96.7929 43.9669 96.7929 44.9291V49.9124H94.834V40.4443H96.7929V41.819C97.079 41.3378 97.4602 40.9627 97.9356 40.6934V40.6933Z" fill="white"/>
<path d="M101.372 42.6094C101.768 41.8764 102.306 41.3065 102.988 40.8996C103.669 40.4932 104.422 40.2896 105.247 40.2896C105.992 40.2896 106.642 40.4356 107.198 40.7276C107.753 41.0197 108.197 41.3836 108.529 41.8189V40.4441H110.506V49.9123H108.529V48.5032C108.197 48.9501 107.745 49.3225 107.172 49.6202C106.599 49.918 105.946 50.067 105.213 50.067C104.399 50.067 103.655 49.8581 102.979 49.4399C102.303 49.0218 101.768 48.4376 101.373 47.687C100.977 46.9369 100.78 46.0863 100.78 45.1353C100.78 44.1843 100.977 43.3426 101.373 42.6093L101.372 42.6094ZM108.126 43.4686C107.856 42.9875 107.504 42.621 107.069 42.3688C106.633 42.117 106.164 41.9908 105.66 41.9908C105.156 41.9908 104.686 42.114 104.251 42.3602C103.815 42.6068 103.463 42.9676 103.194 43.4428C102.924 43.9182 102.79 44.4825 102.79 45.1354C102.79 45.7883 102.924 46.3613 103.194 46.8538C103.463 47.3464 103.818 47.7215 104.259 47.9792C104.7 48.2371 105.167 48.3659 105.66 48.3659C106.164 48.3659 106.633 48.24 107.069 47.9878C107.504 47.736 107.856 47.3666 108.126 46.8794C108.395 46.3927 108.529 45.8226 108.529 45.1696C108.529 44.5166 108.395 43.9496 108.126 43.4685L108.126 43.4686Z" fill="white"/>
<path d="M114.518 49.663C113.928 49.394 113.461 49.0272 113.117 48.5633C112.774 48.0995 112.59 47.5811 112.568 47.0082H114.595C114.63 47.4093 114.821 47.7445 115.171 48.0134C115.52 48.2828 115.958 48.4173 116.485 48.4173C117.035 48.4173 117.462 48.3115 117.766 48.0995C118.069 47.8875 118.221 47.6156 118.221 47.2832C118.221 46.9283 118.052 46.6646 117.714 46.4928C117.376 46.321 116.84 46.1319 116.107 45.9256C115.397 45.7311 114.819 45.542 114.372 45.3586C113.925 45.1755 113.538 44.8948 113.212 44.5167C112.885 44.1386 112.722 43.6403 112.722 43.0217C112.722 42.5177 112.871 42.0566 113.169 41.6384C113.467 41.2203 113.893 40.8909 114.449 40.6503C115.005 40.4098 115.643 40.2896 116.365 40.2896C117.442 40.2896 118.31 40.5617 118.968 41.1057C119.627 41.65 119.979 42.3918 120.025 43.331H118.066C118.032 42.9072 117.86 42.5691 117.551 42.3171C117.241 42.0652 116.823 41.939 116.296 41.939C115.781 41.939 115.385 42.0363 115.111 42.2311C114.835 42.426 114.698 42.6839 114.698 43.0043C114.698 43.2564 114.79 43.4682 114.973 43.6401C115.156 43.812 115.38 43.9468 115.643 44.044C115.907 44.1414 116.296 44.2646 116.812 44.4134C117.499 44.5968 118.063 44.783 118.504 44.9719C118.945 45.1609 119.326 45.4388 119.647 45.8053C119.968 46.172 120.134 46.6588 120.145 47.2659C120.145 47.8045 119.996 48.2856 119.699 48.7094C119.401 49.1334 118.98 49.4655 118.436 49.706C117.891 49.9466 117.253 50.0669 116.52 50.0669C115.775 50.0669 115.108 49.9322 114.518 49.663Z" fill="white"/>
<path d="M124.544 42.0419V47.2829C124.544 47.6381 124.627 47.8931 124.793 48.0477C124.959 48.2022 125.243 48.2797 125.644 48.2797H126.847V49.9122H125.3C124.418 49.9122 123.742 49.7059 123.273 49.2936C122.803 48.8812 122.568 48.211 122.568 47.2831V42.042H121.451V40.444H122.568V38.0898H124.544V40.444H126.847V42.042H124.544L124.544 42.0419Z" fill="white"/>
<path d="M131.753 40.6933C132.228 40.4243 132.793 40.2896 133.446 40.2896V42.3172H132.947C132.18 42.3172 131.598 42.5122 131.203 42.9014C130.808 43.2911 130.61 43.9669 130.61 44.9291V49.9124H128.651V40.4443H130.61V41.819C130.896 41.3378 131.278 40.9627 131.753 40.6934V40.6933Z" fill="white"/>
<path d="M143.824 40.4438V49.912H141.865V48.7951C141.556 49.1846 141.152 49.4909 140.654 49.7144C140.156 49.9378 139.626 50.0495 139.064 50.0495C138.32 50.0495 137.652 49.8949 137.062 49.5856C136.472 49.2763 136.008 48.8182 135.671 48.2109C135.333 47.6039 135.164 46.8706 135.164 46.0114V40.4438H137.106V45.7192C137.106 46.5671 137.318 47.2171 137.742 47.6695C138.165 48.1223 138.744 48.3482 139.477 48.3482C140.21 48.3482 140.792 48.1222 141.221 47.6695C141.651 47.2171 141.865 46.5671 141.865 45.7192V40.4438H143.824Z" fill="white"/>
<path d="M146.342 42.6007C146.737 41.8618 147.284 41.2921 147.983 40.8909C148.681 40.49 149.483 40.2896 150.388 40.2896C151.534 40.2896 152.482 40.5617 153.232 41.1057C153.983 41.65 154.489 42.4261 154.753 43.4341H152.64C152.468 42.9646 152.193 42.5981 151.815 42.3344C151.437 42.0709 150.961 41.9391 150.388 41.9391C149.586 41.9391 148.948 42.2226 148.472 42.7898C147.997 43.3569 147.759 44.1502 147.759 45.1697C147.759 46.1893 147.997 46.9856 148.472 47.5582C148.948 48.1313 149.586 48.4174 150.388 48.4174C151.522 48.4174 152.273 47.9191 152.639 46.9224H154.753C154.478 47.8846 153.963 48.6492 153.206 49.2164C152.45 49.7835 151.511 50.067 150.388 50.067C149.483 50.067 148.681 49.8637 147.983 49.457C147.284 49.0505 146.737 48.4774 146.342 47.7386C145.946 46.9997 145.749 46.1434 145.749 45.1696C145.749 44.1958 145.946 43.3395 146.342 42.6006L146.342 42.6007Z" fill="white"/>
<path d="M158.997 42.0419V47.2829C158.997 47.6381 159.08 47.8931 159.246 48.0477C159.412 48.2022 159.696 48.2797 160.097 48.2797H161.3V49.9122H159.753C158.871 49.9122 158.195 49.7059 157.725 49.2936C157.256 48.8812 157.021 48.211 157.021 47.2831V42.042H155.904V40.444H157.021V38.0898H158.997V40.444H161.3V42.042H158.997L158.997 42.0419Z" fill="white"/>
<path d="M171.679 40.4438V49.912H169.72V48.7951C169.41 49.1846 169.007 49.4909 168.508 49.7144C168.01 49.9379 167.48 50.0495 166.919 50.0495C166.174 50.0495 165.507 49.8949 164.917 49.5856C164.327 49.2763 163.863 48.8182 163.525 48.2109C163.187 47.6039 163.018 46.8706 163.018 46.0114V40.4438H164.96V45.7192C164.96 46.5671 165.172 47.2171 165.596 47.6695C166.02 48.1223 166.598 48.3482 167.332 48.3482C168.065 48.3482 168.646 48.1222 169.076 47.6695C169.505 47.2171 169.72 46.5671 169.72 45.7192V40.4438H171.679Z" fill="white"/>
<path d="M177.357 40.6933C177.833 40.4243 178.397 40.2896 179.05 40.2896V42.3172H178.552C177.784 42.3172 177.203 42.5122 176.808 42.9014C176.412 43.2911 176.215 43.9669 176.215 44.9291V49.9124H174.256V40.4443H176.215V41.819C176.501 41.3378 176.882 40.9627 177.357 40.6934V40.6933Z" fill="white"/>
<path d="M189.463 45.9083H182.229C182.286 46.6644 182.567 47.2717 183.071 47.7297C183.575 48.188 184.194 48.4171 184.927 48.4171C185.981 48.4171 186.725 47.9762 187.161 47.0939H189.274C188.988 47.9646 188.469 48.6777 187.719 49.2332C186.969 49.7891 186.038 50.0666 184.927 50.0666C184.022 50.0666 183.211 49.8634 182.496 49.4566C181.779 49.0501 181.218 48.4771 180.811 47.7382C180.405 46.9993 180.201 46.143 180.201 45.1692C180.201 44.1955 180.399 43.3392 180.794 42.6002C181.189 41.8613 181.745 41.2916 182.461 40.8904C183.177 40.4896 183.999 40.2891 184.927 40.2891C185.82 40.2891 186.616 40.484 187.315 40.8733C188.014 41.263 188.558 41.8098 188.948 42.5144C189.337 43.2189 189.532 44.0296 189.532 44.9459C189.532 45.3011 189.509 45.6219 189.463 45.9082L189.463 45.9083ZM187.487 44.3274C187.476 43.6057 187.218 43.0274 186.714 42.5918C186.21 42.1566 185.586 41.9389 184.841 41.9389C184.165 41.9389 183.587 42.1537 183.105 42.5832C182.624 43.0129 182.338 43.5944 182.246 44.3274H187.487Z" fill="white"/>
<path d="M196.087 40.7706C196.631 39.8426 197.37 39.1183 198.304 38.5969C199.238 38.0757 200.26 37.8149 201.371 37.8149C202.643 37.8149 203.774 38.1271 204.765 38.7515C205.756 39.376 206.475 40.2609 206.922 41.4063H204.567C204.258 40.7764 203.829 40.3066 203.279 39.9972C202.729 39.6879 202.093 39.5333 201.371 39.5333C200.581 39.5333 199.876 39.711 199.258 40.066C198.639 40.4212 198.155 40.9311 197.806 41.5953C197.456 42.2598 197.281 43.0332 197.281 43.915C197.281 44.7969 197.456 45.5706 197.806 46.2349C198.155 46.8994 198.639 47.4119 199.258 47.7729C199.876 48.1336 200.581 48.3141 201.371 48.3141C202.093 48.3141 202.729 48.1595 203.279 47.8502C203.829 47.5409 204.258 47.0714 204.567 46.4411H206.922C206.475 47.5869 205.756 48.4688 204.765 49.0875C203.774 49.7061 202.643 50.0154 201.371 50.0154C200.248 50.0154 199.223 49.755 198.295 49.2335C197.368 48.7123 196.631 47.9877 196.087 47.0599C195.543 46.1319 195.271 45.0836 195.271 43.9152C195.271 42.7467 195.543 41.6985 196.087 40.7706Z" fill="white"/>
<path d="M210.891 49.457C210.17 49.0505 209.602 48.4774 209.19 47.7386C208.778 46.9997 208.571 46.1434 208.571 45.1696C208.571 44.2074 208.783 43.354 209.207 42.6093C209.631 41.8647 210.21 41.292 210.943 40.8909C211.676 40.49 212.495 40.2896 213.4 40.2896C214.305 40.2896 215.124 40.4902 215.857 40.8909C216.59 41.292 217.169 41.8647 217.593 42.6093C218.017 43.3541 218.229 44.2074 218.229 45.1696C218.229 46.1318 218.011 46.9854 217.576 47.7299C217.14 48.4748 216.547 49.0503 215.797 49.4569C215.047 49.8635 214.219 50.0669 213.314 50.0669C212.421 50.0669 211.613 49.8636 210.891 49.4569L210.891 49.457ZM214.732 48.0049C215.173 47.7644 215.531 47.4035 215.806 46.9224C216.081 46.4412 216.218 45.857 216.218 45.1696C216.218 44.4822 216.086 43.9009 215.823 43.4254C215.559 42.9503 215.21 42.592 214.775 42.3514C214.339 42.1109 213.87 41.9907 213.366 41.9907C212.862 41.9907 212.395 42.1109 211.965 42.3514C211.535 42.592 211.194 42.9503 210.943 43.4254C210.691 43.9009 210.564 44.4822 210.564 45.1696C210.564 46.1893 210.825 46.9768 211.346 47.5323C211.868 48.0881 212.523 48.3657 213.314 48.3657C213.818 48.3657 214.291 48.2455 214.732 48.0049Z" fill="white"/>
<path d="M233.633 40.7535C234.223 41.0628 234.687 41.5212 235.025 42.1283C235.363 42.7355 235.532 43.4686 235.532 44.3278V49.9124H233.59V44.6198C233.59 43.7722 233.378 43.1222 232.955 42.6695C232.531 42.217 231.952 41.9908 231.219 41.9908C230.486 41.9908 229.904 42.2171 229.475 42.6695C229.045 43.1222 228.83 43.7722 228.83 44.6198V49.9124H226.889V44.6198C226.889 43.7722 226.676 43.1222 226.253 42.6695C225.829 42.217 225.25 41.9908 224.517 41.9908C223.784 41.9908 223.203 42.2171 222.773 42.6695C222.344 43.1222 222.129 43.7722 222.129 44.6198V49.9124H220.17V40.4443H222.129V41.5267C222.449 41.1374 222.856 40.8337 223.349 40.6161C223.841 40.3986 224.368 40.2896 224.93 40.2896C225.686 40.2896 226.362 40.45 226.957 40.7707C227.553 41.0915 228.011 41.5554 228.332 42.1625C228.618 41.5897 229.065 41.1344 229.672 40.7964C230.279 40.4586 230.932 40.2896 231.631 40.2896C232.376 40.2896 233.043 40.4441 233.633 40.7534L233.633 40.7535Z" fill="white"/>
<path d="M241.34 40.7363C241.913 40.4386 242.56 40.2896 243.282 40.2896C244.107 40.2896 244.86 40.4931 245.542 40.8996C246.223 41.3063 246.759 41.8764 247.149 42.6094C247.538 43.3427 247.733 44.1846 247.733 45.1354C247.733 46.0861 247.538 46.937 247.149 47.6872C246.759 48.4377 246.223 49.0218 245.542 49.44C244.86 49.8582 244.107 50.0671 243.282 50.0671C242.561 50.0671 241.919 49.9211 241.358 49.629C240.796 49.3369 240.338 48.9734 239.983 48.5378V54.4148H238.024V40.4444H239.983V41.8362C240.315 41.4009 240.767 41.0344 241.34 40.7364V40.7363ZM245.336 43.4428C245.066 42.9676 244.711 42.6068 244.27 42.3602C243.829 42.1141 243.356 41.9908 242.853 41.9908C242.36 41.9908 241.893 42.117 241.452 42.3688C241.011 42.621 240.656 42.9875 240.387 43.4686C240.117 43.9497 239.983 44.5168 239.983 45.1697C239.983 45.8226 240.117 46.3928 240.387 46.8795C240.656 47.3666 241.011 47.7361 241.452 47.9879C241.893 48.2401 242.36 48.366 242.853 48.366C243.357 48.366 243.829 48.2372 244.27 47.9793C244.711 47.7216 245.066 47.3466 245.336 46.8539C245.605 46.3615 245.739 45.7884 245.739 45.1355C245.739 44.4826 245.605 43.9184 245.336 43.4429V43.4428Z" fill="white"/>
<path d="M249.614 42.6094C250.009 41.8764 250.548 41.3065 251.229 40.8996C251.911 40.4932 252.664 40.2896 253.489 40.2896C254.234 40.2896 254.884 40.4356 255.439 40.7276C255.995 41.0197 256.439 41.3836 256.771 41.8189V40.4441H258.747V49.9123H256.771V48.5032C256.439 48.9501 255.986 49.3225 255.414 49.6202C254.841 49.918 254.188 50.067 253.455 50.067C252.641 50.067 251.897 49.8581 251.221 49.4399C250.545 49.0218 250.009 48.4376 249.614 47.687C249.219 46.9369 249.021 46.0863 249.021 45.1353C249.021 44.1843 249.219 43.3426 249.614 42.6093L249.614 42.6094ZM256.367 43.4686C256.098 42.9875 255.746 42.621 255.311 42.3688C254.875 42.117 254.406 41.9908 253.902 41.9908C253.398 41.9908 252.928 42.114 252.492 42.3602C252.057 42.6068 251.705 42.9676 251.436 43.4428C251.166 43.9182 251.032 44.4825 251.032 45.1354C251.032 45.7883 251.166 46.3613 251.436 46.8538C251.705 47.3464 252.06 47.7215 252.501 47.9792C252.942 48.2371 253.409 48.3659 253.902 48.3659C254.406 48.3659 254.875 48.24 255.311 47.9878C255.746 47.736 256.098 47.3666 256.367 46.8794C256.636 46.3927 256.771 45.8226 256.771 45.1696C256.771 44.5166 256.636 43.9496 256.367 43.4685L256.367 43.4686Z" fill="white"/>
<path d="M268.104 40.7535C268.694 41.0628 269.155 41.5212 269.487 42.1283C269.819 42.7355 269.985 43.4686 269.985 44.3278V49.9124H268.044V44.6198C268.044 43.7722 267.831 43.1222 267.408 42.6695C266.984 42.217 266.405 41.9908 265.672 41.9908C264.939 41.9908 264.358 42.2171 263.928 42.6695C263.498 43.1222 263.284 43.7722 263.284 44.6198V49.9124H261.325V40.4443H263.284V41.5267C263.604 41.1374 264.014 40.8337 264.512 40.6161C265.011 40.3986 265.54 40.2896 266.102 40.2896C266.846 40.2896 267.514 40.4441 268.104 40.7534V40.7535Z" fill="white"/>
<path d="M281 40.4438L275.192 54.3627H273.164L275.089 49.7574L271.36 40.4438H273.542L276.206 47.661L278.972 40.4438H281Z" fill="white"/>
</svg>
