<svg width="156" height="116" viewBox="0 0 156 116" fill="none" xmlns="http://www.w3.org/2000/svg">
<g clip-path="url(#clip0_6_926)">
<path d="M135.463 52.1419L135.462 52.1459L120.787 49.6548L102.148 55.1291L94.188 52.2133C93.0792 52.486 92.0869 52.7596 91.1896 53.0354C91.1896 53.0354 62.4431 57.5951 65.9054 82.8502L81.9699 83.2322C82.4161 84.6018 82.4483 84.2708 82.7711 85.0891L88.5248 103.971H135.608L136.045 88.5658L150.334 97.6946C152.099 98.8227 154.443 97.6915 154.635 95.6159C155.24 89.0602 155.97 77.5228 155.98 77.2234C156.733 56.2375 135.463 52.1419 135.463 52.1419Z" fill="#7E0536"/>
<path d="M83.5026 87.8017C83.3634 87.8017 83.236 87.7085 83.1997 87.5684L80.3375 76.4969C80.2946 76.3307 80.3954 76.1614 80.5627 76.1186C80.7301 76.0763 80.9006 76.176 80.9438 76.3422L83.806 87.4141C83.8489 87.5802 83.7479 87.7495 83.5808 87.7923C83.5545 87.7992 83.5285 87.802 83.5026 87.802V87.8017Z" fill="#121936"/>
<path d="M138.45 89.808C138.383 89.808 138.316 89.7872 138.26 89.7437L129.482 83.0402C128.406 82.3333 127.702 81.177 127.568 79.8806L126.664 71.0813C126.646 70.9105 126.771 70.7583 126.943 70.7406C127.112 70.7251 127.269 70.8474 127.287 71.0182L128.191 79.8176C128.305 80.9279 128.908 81.9187 129.846 82.5349L138.641 89.2511C138.778 89.3558 138.804 89.5509 138.698 89.6866C138.637 89.7664 138.544 89.808 138.45 89.808H138.45Z" fill="#121936"/>
<path d="M114.447 22.7337L110.109 22.584C107.987 22.5107 106.108 23.7337 105.248 25.5314L106.088 13.3063C106.088 13.3063 101.748 15.8015 96.0523 12.5345C96.0523 12.5345 89.5015 10.3776 87.4498 15.4068C87.4448 15.4568 87.4379 15.5068 87.4345 15.5571L86.1737 33.7304C85.7126 40.3783 90.2871 46.1769 96.5741 47.2189L98.0388 54.4352C99.1197 59.7604 104.463 63.2252 109.913 62.1351L110.14 62.0897C115.59 60.9996 120.247 56.9102 119.166 51.585L114.881 33.9198L115.885 33.9543C118.992 34.0615 121.622 31.6259 121.731 28.5415L121.745 28.13C121.799 26.5964 121.158 25.1941 120.109 24.213C119.224 23.3859 118.051 22.8573 116.749 22.8126L114.448 22.7334L114.447 22.7337Z" fill="#FFAA89"/>
<path d="M96.667 47.4318C96.667 47.4318 107.662 46.1336 108.842 41.9765C108.842 41.9765 110.326 47.7763 97.6882 53.0204L96.667 47.4318Z" fill="#FF6A48"/>
<path d="M115.735 37.4449C115.735 37.4449 115.727 35.8249 116.566 34.0015L111.792 33.8369L115.735 37.4449Z" fill="#121936"/>
<path d="M114.767 9.96268C114.767 9.96268 117.742 4.81109 109.785 1.09159C101.829 -2.62792 98.8998 4.35112 98.8998 4.35112C98.8998 4.35112 97.9506 -2.04185 88.3217 1.05494C78.6928 4.15142 87.2368 15.9994 87.2368 15.9994C87.3003 15.7907 87.3725 15.5954 87.4495 15.4071C89.5012 10.3776 96.0519 12.5349 96.0519 12.5349C101.748 15.8019 106.088 13.3067 106.088 13.3067L105.342 24.1615C105.019 26.3315 104.588 29.2031 104.28 31.257C104.082 32.5819 102.688 33.372 101.436 32.8713L94.5449 30.1153C94.2161 29.9839 93.8592 29.9376 93.5075 29.9808L88.0627 30.6519C87.0785 30.7734 86.3164 31.5651 86.2388 32.5465L85.8293 37.7282C85.3753 43.4705 90.018 48.3451 95.8186 48.2168L98.8576 48.1494C99.0647 48.1447 99.2696 48.1096 99.4661 48.0453L100.23 48.0019C108.034 47.5562 112.973 39.4923 109.781 32.4086C109.512 32.0353 109.375 31.5837 109.393 31.125L109.709 23.2064C109.718 22.9931 109.693 22.7862 109.639 22.5912C109.794 22.5825 109.951 22.5784 110.109 22.584L114.447 22.7337L116.748 22.8129C118.05 22.858 119.223 23.3866 120.108 24.2133C121.485 20.7799 122.689 17.3933 123.04 15.2901C123.989 9.5993 114.767 9.96268 114.767 9.96268H114.767Z" fill="#121936"/>
<path d="M117.236 30.2257C117.177 30.2257 117.118 30.2095 117.065 30.1754L115.251 29.0008C115.174 28.9511 115.124 28.8709 115.112 28.7809C115.1 28.6908 115.128 28.6004 115.189 28.533L117.128 26.3907C117.245 26.2633 117.442 26.2528 117.57 26.3674C117.699 26.482 117.709 26.6786 117.594 26.8059L115.899 28.6784L117.407 29.6549C117.552 29.7486 117.593 29.9409 117.498 30.0847C117.438 30.176 117.338 30.2257 117.236 30.2257Z" fill="#FF6A48"/>
<path d="M88.1856 24.6004C88.0498 25.2324 88.4559 25.8539 89.0923 25.9887C89.7289 26.1235 90.3549 25.7204 90.4907 25.0883C90.6265 24.4563 90.2204 23.8348 89.5837 23.7C88.9471 23.5653 88.3214 23.9684 88.1856 24.6004Z" fill="#121936"/>
<path d="M96.6464 24.855C96.6526 25.5013 97.1851 26.02 97.8361 26.0138C98.4869 26.0076 99.0096 25.479 99.0034 24.8327C98.9971 24.1867 98.4646 23.6677 97.8139 23.6739C97.1629 23.6801 96.6404 24.2087 96.6464 24.855Z" fill="#121936"/>
<path d="M98.9574 26.1473C98.9574 26.1473 97.9569 25.3292 96.8788 26.1563L98.9574 26.1473Z" fill="#FFA386"/>
<path d="M96.8791 26.4668C96.7853 26.4668 96.6927 26.4252 96.6313 26.346C96.5256 26.2103 96.5506 26.0152 96.6877 25.9103C97.6966 25.1366 98.7434 25.5699 99.1564 25.9075C99.29 26.0165 99.3087 26.2122 99.1989 26.3448C99.0897 26.4765 98.8933 26.496 98.76 26.3883C98.7262 26.3612 97.9306 25.7422 97.0706 26.4019C97.0137 26.4457 96.9464 26.4668 96.8798 26.4668H96.8791Z" fill="#FF6A48"/>
<path d="M88.2419 26.7383C88.1578 26.7383 88.0739 26.7048 88.0123 26.6387C87.895 26.5126 87.9028 26.316 88.0298 26.1998C88.9524 25.3535 89.9726 25.7302 90.3828 26.0473C90.5192 26.1526 90.5436 26.3476 90.4375 26.4831C90.3315 26.6182 90.1359 26.6427 89.9998 26.5383C89.9191 26.4775 89.1986 25.9731 88.4544 26.6557C88.3943 26.711 88.3183 26.7383 88.2419 26.7383Z" fill="#FF6A48"/>
<path d="M88.4193 28.5883C86.2394 28.5883 84.4662 26.5723 84.4662 24.0942C84.4662 21.6161 86.2394 19.6001 88.4193 19.6001C90.5993 19.6001 92.3725 21.6161 92.3725 24.0942C92.3725 26.5723 90.5993 28.5883 88.4193 28.5883ZM88.4193 20.2213C86.5848 20.2213 85.0919 21.9586 85.0919 24.0942C85.0919 26.2297 86.5845 27.9671 88.4193 27.9671C90.2542 27.9671 91.7468 26.2297 91.7468 24.0942C91.7468 21.9586 90.2542 20.2213 88.4193 20.2213Z" fill="white"/>
<path d="M93.0905 22.1604V26.224H90.9631C90.4165 26.224 89.9735 26.6638 89.9735 27.2064V27.6508C89.9735 28.7133 90.8414 29.5749 91.9117 29.5749H93.8498" fill="#FFAA89"/>
<path d="M93.8498 29.8858H91.9117C90.6703 29.8858 89.6607 28.8832 89.6607 27.6512V27.2067C89.6607 26.4936 90.2448 25.9135 90.9631 25.9135H92.778V22.1604C92.778 21.989 92.9178 21.8499 93.0908 21.8499C93.2638 21.8499 93.4037 21.989 93.4037 22.1604V26.5346H90.9631C90.5902 26.5346 90.2864 26.8362 90.2864 27.2067V27.6512C90.2864 28.541 91.0157 29.2646 91.9117 29.2646H93.8498C94.0228 29.2646 94.1626 29.4038 94.1626 29.5752C94.1626 29.7467 94.0228 29.8858 93.8498 29.8858Z" fill="#FF6A48"/>
<path d="M97.9572 28.3053C95.7773 28.3053 94.004 26.2893 94.004 23.8112C94.004 21.3331 95.7773 19.3171 97.9572 19.3171C100.137 19.3171 101.911 21.3331 101.911 23.8112C101.911 26.2893 100.137 28.3053 97.9572 28.3053ZM97.9572 19.9383C96.1226 19.9383 94.6297 21.6757 94.6297 23.8112C94.6297 25.9468 96.1223 27.6842 97.9572 27.6842C99.7921 27.6842 101.285 25.9468 101.285 23.8112C101.285 21.6757 99.7921 19.9383 97.9572 19.9383Z" fill="white"/>
<path d="M101.133 19.6153C100.754 19.6733 100.323 19.5171 99.8987 19.3898C99.4739 19.2528 99.0437 19.1255 98.6661 19.0283C98.2875 18.9304 97.8492 18.8329 97.4109 18.7469C96.9776 18.6521 96.5228 18.5795 96.2249 18.3465C95.9362 18.1263 95.9064 17.7018 96.4167 17.321C96.9004 16.9471 97.9778 16.6828 99.2308 17.0033C100.481 17.3294 101.276 18.0779 101.501 18.6348C101.743 19.2103 101.497 19.5634 101.133 19.6149V19.6153Z" fill="#121936"/>
<path d="M86.7365 18.3528C87.0215 18.4655 87.3744 18.3991 87.7192 18.3565C88.0652 18.3056 88.4143 18.2643 88.7187 18.2407C89.0238 18.2168 89.3751 18.2028 89.7249 18.1987C90.0718 18.1866 90.4325 18.1969 90.6934 18.0413C90.9456 17.8953 91.0251 17.5276 90.6819 17.1102C90.3584 16.703 89.5622 16.2952 88.5526 16.3719C87.5446 16.4542 86.8313 16.9807 86.5838 17.4325C86.3198 17.8978 86.4625 18.2478 86.7368 18.3525L86.7365 18.3528Z" fill="#121936"/>
<path d="M94.3172 23.7457H92.7051C92.5321 23.7457 92.3922 23.6065 92.3922 23.4351C92.3922 23.2637 92.5321 23.1245 92.7051 23.1245H94.3172C94.4902 23.1245 94.63 23.2637 94.63 23.4351C94.63 23.6065 94.4902 23.7457 94.3172 23.7457Z" fill="white"/>
<path d="M101.598 23.5917C101.438 23.5917 101.302 23.4712 101.287 23.3103C101.27 23.1395 101.397 22.9879 101.568 22.9721L111.147 22.0745C111.318 22.0593 111.471 22.1838 111.487 22.3546C111.504 22.5255 111.377 22.677 111.205 22.6929L101.627 23.5904C101.618 23.5914 101.608 23.5917 101.598 23.5917Z" fill="white"/>
<path d="M96.3839 35.3756C96.3717 35.3756 96.3598 35.3756 96.3476 35.3756L92.5918 35.3281C92.4188 35.3259 92.2808 35.1852 92.283 35.0135C92.2852 34.8433 92.4247 34.7069 92.5959 34.7069H92.5999L96.3557 34.7544C97.4031 34.7681 98.3448 34.0398 98.5844 33.0229L99.1936 33.1646C98.8904 34.451 97.7122 35.3756 96.3839 35.3756Z" fill="#FF6A48"/>
<path d="M96.7243 48.6865L91.9117 52.8194L92.63 62.5865C92.6666 63.085 93.2635 63.3251 93.6392 62.9928L102.491 55.163L96.7243 48.6868V48.6865Z" fill="white"/>
<path d="M117.834 46.0994L102.094 55.1158L108.414 65.6519C108.707 66.1401 109.371 66.2501 109.808 65.883L125.12 53.0113L117.834 46.0994Z" fill="white"/>
<path d="M94.8397 61.9305L99.0034 70.3373L108.025 65.0037L102.25 55.3757L94.8397 61.9305Z" fill="#121936"/>
<path d="M46.4965 18.8295L36.7559 18.8972L24.0382 18.8966L24.0676 14.2149C24.0713 13.5863 24.0163 12.9707 23.9068 12.3741C22.2089 3.11945 8.56085 3.0651 6.76446 12.3014C6.64589 12.9108 6.58395 13.5403 6.58395 14.1842V19.8137H6.58958L6.61305 24.0106C6.63745 28.4466 3.75359 32.2394 0.0109647 33.064C-0.0807004 33.0842 0.425179 33.0938 0.911661 33.1066C1.59899 33.1246 2.14554 33.1084 2.14554 33.1084L38.4747 33.1553C42.9487 33.1243 46.5531 29.0302 46.5256 24.0106L46.4971 18.8295H46.4965Z" fill="#121936"/>
<path d="M76.0364 18.7628C76.0364 13.0149 72.3829 8.11552 67.2559 6.22471C66.017 5.66318 64.6427 5.34421 63.1923 5.33521L32.9919 5.36968L32.9941 5.36564H16.5316C16.3117 5.36564 16.094 5.37527 15.8775 5.38925L15.3165 5.38987V5.40819C15.3585 5.41316 15.3994 5.42061 15.441 5.42589C20.1235 6.04333 23.7679 9.88737 24.0479 14.6231H24.0425V107.808C24.0425 112.332 27.7767 116 32.3831 116H76.0192V78.4028H76.0361V18.7628H76.0364Z" fill="white"/>
<path d="M68.4801 55.6136H33.0458C32.8728 55.6136 32.7329 55.4748 32.7329 55.303C32.7329 55.1313 32.8728 54.9924 33.0458 54.9924H68.4801C68.6531 54.9924 68.793 55.1316 68.793 55.303C68.793 55.4745 68.6531 55.6136 68.4801 55.6136Z" fill="#121936"/>
<path d="M57.8004 50.6444H42.8733C42.7003 50.6444 42.5605 50.5052 42.5605 50.3338C42.5605 50.1623 42.7003 50.0232 42.8733 50.0232H57.8004C57.9734 50.0232 58.1132 50.1623 58.1132 50.3338C58.1132 50.5052 57.9734 50.6444 57.8004 50.6444Z" fill="#121936"/>
<path d="M68.4801 62.908H33.0458C32.8728 62.908 32.7329 62.7692 32.7329 62.5974C32.7329 62.4257 32.8728 62.2869 33.0458 62.2869H68.4801C68.6531 62.2869 68.793 62.4257 68.793 62.5974C68.793 62.7692 68.6531 62.908 68.4801 62.908Z" fill="#121936"/>
<path d="M68.4801 70.202H33.0458C32.8728 70.202 32.7329 70.0631 32.7329 69.8914C32.7329 69.7196 32.8728 69.5808 33.0458 69.5808H68.4801C68.6531 69.5808 68.793 69.7196 68.793 69.8914C68.793 70.0631 68.6531 70.202 68.4801 70.202Z" fill="#121936"/>
<path d="M68.4801 77.0284H33.0458C32.8728 77.0284 32.7329 76.8896 32.7329 76.7178C32.7329 76.5461 32.8728 76.4072 33.0458 76.4072H68.4801C68.6531 76.4072 68.793 76.5461 68.793 76.7178C68.793 76.8896 68.6531 77.0284 68.4801 77.0284Z" fill="#121936"/>
<path d="M49.1388 16.5042C48.7152 15.1935 46.7658 15.5001 46.7711 16.8766C46.7755 18.0474 45.2641 18.5351 44.5743 17.5853C43.7637 16.4688 42.0048 17.3583 42.4381 18.6658C42.8067 19.7783 41.5212 20.7057 40.5695 20.0137C39.451 19.2003 38.0551 20.5861 38.8745 21.6965C39.5715 22.6412 38.6373 23.9177 37.5167 23.5515C36.1996 23.1214 35.3036 24.8672 36.4283 25.6722C37.3853 26.357 36.8941 27.8574 35.7144 27.8531C34.3278 27.8478 34.019 29.7833 35.3392 30.2035C36.4624 30.5613 36.4624 32.1388 35.3392 32.4966C34.019 32.9171 34.3278 34.8523 35.7144 34.847C36.8941 34.8427 37.385 36.3431 36.4283 37.0279C35.3036 37.8326 36.1996 39.5787 37.5167 39.1482C38.6373 38.7821 39.5712 40.0586 38.8745 41.0033C38.0554 42.114 39.451 43.4995 40.5695 42.6861C41.5212 41.9941 42.807 42.9215 42.4381 44.034C42.0048 45.3415 43.7634 46.231 44.5743 45.1145C45.2641 44.1644 46.7755 44.652 46.7711 45.8232C46.7658 47.1997 48.7155 47.5063 49.1388 46.1956C49.4992 45.0806 51.0884 45.0806 51.4485 46.1956C51.8721 47.5063 53.8215 47.1997 53.8162 45.8232C53.8118 44.652 55.3232 44.1647 56.013 45.1145C56.8239 46.231 58.5825 45.3415 58.1492 44.034C57.7803 42.9215 59.0661 41.9941 60.0178 42.6861C61.1366 43.4992 62.5322 42.1137 61.7128 41.0033C61.0158 40.0586 61.95 38.7821 63.0706 39.1482C64.3877 39.5784 65.2837 37.8326 64.159 37.0279C63.202 36.3431 63.6932 34.8427 64.8729 34.847C66.2595 34.8523 66.5683 32.9168 65.2481 32.4966C64.1249 32.1388 64.1249 30.561 65.2481 30.2035C66.5683 29.783 66.2595 27.8478 64.8729 27.8531C63.6935 27.8574 63.2023 26.357 64.159 25.6722C65.2837 24.8675 64.3877 23.1214 63.0706 23.5515C61.95 23.9177 61.0161 22.6412 61.7128 21.6965C62.5319 20.5861 61.1363 19.2003 60.0178 20.0134C59.0661 20.7054 57.7803 19.778 58.1492 18.6655C58.5825 17.358 56.8239 16.4685 56.013 17.585C55.3232 18.5351 53.8118 18.0474 53.8162 16.8766C53.8215 15.5001 51.8718 15.1935 51.4485 16.5042C51.0881 17.6192 49.4989 17.6192 49.1388 16.5042Z" fill="#FF9AC3"/>
<path d="M55.8704 40.8116H44.717C43.4114 40.8116 42.3493 39.7571 42.3493 38.4611V29.7074C42.3493 28.4114 43.4114 27.3569 44.717 27.3569H55.8704C57.1759 27.3569 58.238 28.4114 58.238 29.7074V38.4611C58.238 39.7571 57.1756 40.8116 55.8704 40.8116ZM44.717 28.2887C43.9289 28.2887 43.2879 28.9251 43.2879 29.7074V38.4611C43.2879 39.2434 43.9292 39.8798 44.717 39.8798H55.8704C56.6585 39.8798 57.2995 39.2434 57.2995 38.4611V29.7074C57.2995 28.9251 56.6581 28.2887 55.8704 28.2887H44.717Z" fill="#121936"/>
<path d="M55.5938 28.2887C55.3348 28.2887 55.1245 28.0803 55.1245 27.8229V25.2792C55.1245 23.5804 53.5462 22.1986 51.6065 22.1986H48.9805C47.0408 22.1986 45.4625 23.5807 45.4625 25.2792V27.8229C45.4625 28.0803 45.2522 28.2887 44.9932 28.2887C44.7342 28.2887 44.5239 28.0803 44.5239 27.8229V25.2792C44.5239 23.0667 46.5234 21.2668 48.9805 21.2668H51.6065C54.0637 21.2668 56.0631 23.0667 56.0631 25.2792V27.8229C56.0631 28.0803 55.8529 28.2887 55.5938 28.2887Z" fill="#121936"/>
<path d="M53.1248 32.7104C53.1248 31.265 51.8728 30.0959 50.3373 30.118C48.8876 30.1388 47.6915 31.242 47.6371 32.6104C47.6027 33.4778 48.0197 34.2543 48.6836 34.7481C48.8269 34.8546 48.9139 35.0143 48.9139 35.1863V35.8973C48.9139 36.2019 49.1754 36.4492 49.4979 36.4492H51.2621C51.5847 36.4492 51.8462 36.2019 51.8462 35.8973V35.187C51.8462 35.0152 51.9325 34.8549 52.0755 34.7487C52.7144 34.2742 53.1248 33.5375 53.1248 32.7104Z" fill="#121936"/>
<path d="M50.9615 37.4269C50.9615 37.7456 50.7012 38.004 50.3802 38.004C50.0592 38.004 49.7989 37.7456 49.7989 37.4269C49.7989 37.1083 50.0592 36.8499 50.3802 36.8499C50.7012 36.8499 50.9615 37.1083 50.9615 37.4269Z" fill="#121936"/>
<path d="M50.3799 38.0816C50.0163 38.0816 49.7207 37.7878 49.7207 37.4269C49.7207 37.066 50.0163 36.7722 50.3799 36.7722C50.7434 36.7722 51.0394 37.066 51.0394 37.4269C51.0394 37.7878 50.7434 38.0816 50.3799 38.0816ZM50.3799 36.9275C50.1024 36.9275 49.8771 37.1517 49.8771 37.4269C49.8771 37.7021 50.1027 37.9263 50.3799 37.9263C50.6571 37.9263 50.8829 37.7024 50.8829 37.4269C50.8829 37.1514 50.6571 36.9275 50.3799 36.9275Z" fill="#FFD066"/>
<path d="M51.2455 36.5999H49.5148C49.398 36.5999 49.3033 36.6939 49.3033 36.8098V36.8704C49.3033 36.9863 49.398 37.0803 49.5148 37.0803H51.2455C51.3623 37.0803 51.457 36.9863 51.457 36.8704V36.8098C51.457 36.6939 51.3623 36.5999 51.2455 36.5999Z" fill="#121936"/>
<path d="M51.2455 37.158H49.5148C49.355 37.158 49.2251 37.0288 49.2251 36.8704V36.8098C49.2251 36.6514 49.355 36.5222 49.5148 36.5222H51.2455C51.4054 36.5222 51.5352 36.6514 51.5352 36.8098V36.8704C51.5352 37.0288 51.4054 37.158 51.2455 37.158ZM49.5148 36.6775C49.4416 36.6775 49.3816 36.7368 49.3816 36.8098V36.8704C49.3816 36.9434 49.4413 37.0027 49.5148 37.0027H51.2455C51.3187 37.0027 51.3788 36.9434 51.3788 36.8704V36.8098C51.3788 36.7368 51.319 36.6775 51.2455 36.6775H49.5148Z" fill="#FFD066"/>
<path d="M51.1401 37.0803H49.62C49.5178 37.0803 49.4351 37.1625 49.4351 37.2639V37.3167C49.4351 37.418 49.5178 37.5002 49.62 37.5002H51.1401C51.2422 37.5002 51.325 37.418 51.325 37.3167V37.2639C51.325 37.1625 51.2422 37.0803 51.1401 37.0803Z" fill="#121936"/>
<path d="M51.1401 37.5782H49.62C49.4748 37.5782 49.3568 37.4611 49.3568 37.317V37.2639C49.3568 37.1198 49.4748 37.0027 49.62 37.0027H51.1401C51.2853 37.0027 51.4032 37.1198 51.4032 37.2639V37.317C51.4032 37.4611 51.2853 37.5782 51.1401 37.5782ZM49.62 37.1583C49.5611 37.1583 49.5133 37.2058 49.5133 37.2642V37.3173C49.5133 37.3757 49.5611 37.4232 49.62 37.4232H51.1401C51.1989 37.4232 51.2468 37.3757 51.2468 37.3173V37.2642C51.2468 37.2058 51.1989 37.1583 51.1401 37.1583H49.62Z" fill="#FFD066"/>
<path d="M48.4774 33.3358C48.4258 33.3358 48.3786 33.302 48.3645 33.2501C48.0219 32.009 49.013 31.3078 49.023 31.3006C49.0759 31.2643 49.1491 31.2773 49.186 31.3298C49.2233 31.3823 49.2101 31.455 49.1572 31.4919C49.1219 31.5165 48.2928 32.1094 48.5907 33.1886C48.6079 33.2507 48.5713 33.3147 48.5084 33.3318C48.4981 33.3346 48.4877 33.3358 48.4774 33.3358Z" fill="#FFD066"/>
<path d="M35.3721 20.379C35.3039 20.379 35.2351 20.3569 35.1775 20.3112L32.2251 17.9772C32.09 17.8704 32.0678 17.675 32.1754 17.5409C32.283 17.4067 32.4795 17.3847 32.615 17.4915L35.5673 19.8255C35.7025 19.9323 35.7247 20.1277 35.6171 20.2619C35.5554 20.3389 35.4641 20.379 35.3721 20.379Z" fill="#121936"/>
<path d="M28.908 31.4905C28.766 31.4905 28.6377 31.3942 28.6036 31.251C28.5642 31.0839 28.6687 30.9168 28.8367 30.8777L32.5108 30.022C32.6785 29.9826 32.8471 30.0863 32.8868 30.2534C32.9262 30.4205 32.8218 30.5876 32.6538 30.6267L28.9796 31.4824C28.9555 31.488 28.9318 31.4905 28.908 31.4905Z" fill="#121936"/>
<path d="M33.1002 25.5873C33.0723 25.5873 33.0445 25.5835 33.0166 25.5758L29.3791 24.5779C29.2127 24.5322 29.1148 24.3611 29.1611 24.1959C29.2068 24.0303 29.3798 23.9341 29.5459 23.9791L33.1834 24.977C33.3498 25.0226 33.4478 25.1938 33.4015 25.359C33.3633 25.4966 33.2375 25.5873 33.1002 25.5873Z" fill="#121936"/>
<path d="M67.5991 31.2139C67.4377 31.2139 67.301 31.0909 67.2875 30.9285C67.2738 30.7576 67.402 30.6076 67.5741 30.594L71.3355 30.2915C71.5085 30.2766 71.6587 30.4048 71.6728 30.576C71.6865 30.7468 71.5583 30.8968 71.3862 30.9104L67.6248 31.213C67.6163 31.2136 67.6076 31.2139 67.5991 31.2139Z" fill="#121936"/>
<path d="M67.1255 25.5873C66.9885 25.5873 66.8624 25.497 66.8242 25.3594C66.7782 25.1942 66.8758 25.023 67.0423 24.9774L70.6798 23.9795C70.845 23.9347 71.0189 24.0307 71.0646 24.1963C71.1106 24.3615 71.013 24.5326 70.8465 24.5783L67.209 25.5762C67.1812 25.5836 67.153 25.5877 67.1252 25.5877L67.1255 25.5873Z" fill="#121936"/>
<path d="M69.9931 37.4058C69.9446 37.4058 69.8955 37.3946 69.8492 37.3707L66.5004 35.6432C66.3471 35.5644 66.2874 35.3768 66.3668 35.2246C66.4466 35.0724 66.6346 35.0125 66.7889 35.0923L70.1376 36.8197C70.2909 36.8986 70.3507 37.0862 70.2712 37.2384C70.2152 37.3449 70.1063 37.4058 69.9931 37.4058Z" fill="#121936"/>
<path d="M65.6391 20.5473C65.6391 22.9369 63.7007 24.952 61.2154 24.952C58.7436 24.952 56.8305 22.9627 56.8305 20.5731C56.8305 18.1835 58.7561 16.1685 61.2414 16.1685C63.7132 16.1685 65.6391 18.145 65.6391 20.5473ZM57.7468 20.575C57.7468 22.477 59.2529 24.0448 61.2126 24.0448C63.2017 24.0448 64.7228 22.4478 64.7228 20.5458C64.7228 18.6438 63.2017 17.076 61.242 17.076C59.2673 17.076 57.7468 18.673 57.7468 20.575ZM62.6927 19.6712C62.5009 19.8998 62.1599 19.9696 61.9134 19.8004C61.7326 19.6761 61.537 19.6044 61.3587 19.6044C60.8644 19.6044 60.4999 19.992 60.4999 20.5346C60.4999 21.0899 60.8644 21.4775 61.3587 21.4775C61.5345 21.4775 61.7401 21.4092 61.9359 21.2905C62.163 21.153 62.4574 21.1977 62.6392 21.3905L62.6533 21.4058C62.892 21.6583 62.8557 22.0732 62.5622 22.2605C62.1709 22.5102 61.7138 22.6531 61.2805 22.6531C60.0181 22.6531 59.1074 21.775 59.1074 20.5607C59.1074 19.3594 60.0444 18.481 61.3324 18.481C61.7491 18.481 62.1943 18.613 62.5685 18.8351C62.8607 19.0087 62.9107 19.4115 62.6927 19.6712Z" fill="#121936"/>
<path d="M60.8341 91.7403V105.465C60.8341 110.897 65.2703 115.301 70.7423 115.301H72.5819C79.1574 115.301 84.488 110.009 84.488 103.481C84.488 98.8861 88.2401 95.1613 92.8687 95.1613H96.315C97.1037 95.1613 97.8611 95.2902 98.5704 95.525V95.1613H98.6514V90.0004C98.6514 86.3235 95.6487 83.3425 91.9448 83.3425H52.7534V83.3522C57.2494 83.5488 60.8341 87.2282 60.8341 91.7403Z" fill="#F4F2ED"/>
<path d="M144.54 107.119L144.468 101.82C144.468 98.1426 141.465 95.1616 137.761 95.1616H98.5701V95.5253C101.401 96.4623 103.442 99.1122 103.442 102.237V105.581C103.442 111.335 108.141 116 113.938 116H152C147.711 115.162 144.599 111.458 144.54 107.119Z" fill="#FAF8F3"/>
<path d="M24.0219 107.876C24.0219 108.413 24.0807 108.936 24.1899 109.441C24.0911 108.916 24.0397 108.37 24.0429 107.808L24.0219 107.876Z" fill="#121936"/>
<path d="M103.442 105.581V102.237C103.442 99.1122 101.401 96.4623 98.5701 95.5253C97.8612 95.2905 97.1035 95.1616 96.3148 95.1616H92.8684C88.2398 95.1616 84.4878 98.8867 84.4878 103.481C84.4878 110.009 79.1571 115.301 72.5816 115.301H70.7421C65.2697 115.301 60.8338 110.897 60.8338 105.465V91.7405C60.8338 87.2284 57.2491 83.549 52.7528 83.3524C52.6274 83.3468 52.5016 83.3428 52.3746 83.3428C46.6648 83.3428 42.0358 87.9381 42.0358 93.6065V104.843C42.0358 110.619 37.3193 115.301 31.5009 115.301C27.9113 115.301 24.9132 112.79 24.1893 109.441C24.9089 113.263 28.2072 116 32.3275 116H113.937C108.141 116 103.442 111.335 103.442 105.581H103.442Z" fill="#121936"/>
<path d="M33.663 66.4918C32.181 63.3398 28.7926 65.6548 26.5829 66.771C25.5827 67.3773 24.6607 67.9186 23.7951 68.419C23.9637 67.2363 24.1302 66.0393 23.8774 64.8473C23.796 64.4634 23.6384 64.0438 23.2927 63.8569C23.027 63.7131 22.7067 63.7463 22.4526 63.8733C22.1986 64.0004 21.9978 64.2094 21.8063 64.4193C20.0212 66.3763 16.0136 73.0864 16.0136 73.0864C15.2562 74.6977 14.7428 76.5052 14.5059 78.2889C13.8167 83.4731 18.5692 88.2125 23.5733 87.1833C24.1877 87.0569 24.7261 86.8584 25.1213 86.5603L33.5347 80.5658C35.1434 79.5477 35.3199 77.0034 33.8244 76.9786C35.2551 76.5555 36.6367 75.5561 35.8164 73.7827C35.4716 72.7575 34.6729 72.6059 33.821 72.7382C35.1171 72.3174 36.2834 71.6456 35.7091 70.129C35.3124 68.409 33.9092 68.3528 32.5978 68.6622C33.4446 68.2674 34.0888 67.6236 33.6627 66.4915L33.663 66.4918Z" fill="#FFA386"/>
<path d="M20.1839 70.8269C20.0759 70.8269 19.9711 70.7716 19.9132 70.6725C19.8266 70.5244 19.877 70.3343 20.0262 70.248L24.5738 67.6177C24.723 67.5313 24.9148 67.5816 25.0014 67.7298C25.0881 67.8779 25.0377 68.068 24.8885 68.1543L20.3409 70.7846C20.2915 70.8132 20.2374 70.8269 20.1839 70.8269Z" fill="#FF6A48"/>
<path d="M29.316 70.8268C29.2099 70.8268 29.1064 70.7734 29.0479 70.6768C28.9587 70.5296 29.0063 70.3389 29.1542 70.2504C29.4721 70.0603 32.2749 68.3884 32.869 68.2276C33.0342 68.1825 33.2075 68.2797 33.2529 68.4456C33.2986 68.6108 33.2 68.7816 33.0333 68.827C32.6491 68.931 30.6484 70.0814 29.4774 70.7824C29.4267 70.8128 29.371 70.8271 29.316 70.8271V70.8268Z" fill="#FF6A48"/>
<path d="M31.0066 74.7485C30.8987 74.7485 30.7936 74.6929 30.7357 74.5935C30.649 74.445 30.7 74.255 30.8496 74.1692L33.7109 72.5244C33.8601 72.4381 34.0519 72.4893 34.1382 72.6375C34.2249 72.7859 34.1739 72.976 34.0244 73.0617L31.1633 74.7065C31.1142 74.7351 31.0598 74.7485 31.0066 74.7485Z" fill="#FF6A48"/>
<path d="M31.8585 78.4227C31.7484 78.4227 31.6411 78.3646 31.5841 78.2615C31.5006 78.1115 31.556 77.9223 31.7077 77.84L33.2685 76.9878C33.419 76.9052 33.6101 76.9595 33.6934 77.1105C33.7769 77.2605 33.7215 77.4496 33.5698 77.5319L32.009 78.3841C31.9614 78.4102 31.9095 78.4227 31.8585 78.4227Z" fill="#FF6A48"/>
<path d="M90.7219 49.3337L92.6403 50.9671C93.1315 51.3851 93.1719 52.138 92.7307 52.6486L91.0076 54.6431C90.5664 55.1537 89.8109 55.2285 89.3197 54.8105L87.401 53.1769C86.9098 52.7588 86.8695 52.006 87.3106 51.4954L89.0338 49.5008C89.4749 48.9902 90.2304 48.9154 90.7216 49.3334L90.7219 49.3337Z" fill="#FF6A48"/>
<path d="M88.2423 50.4317L70.4492 71.0276L74.1459 74.1751L91.9391 53.5792L88.2423 50.4317Z" fill="#FFD066"/>
<path d="M70.4827 71.0557L74.1114 74.1454C74.1271 74.1587 74.1834 74.2066 74.098 74.1985L68.3941 77.1179L70.4314 71.0768C70.4392 71.0539 70.4667 71.0424 70.4824 71.0557H70.4827Z" fill="#FFAA89"/>
<path d="M69.1484 74.9536L70.4473 76.0596C70.453 76.0642 70.473 76.0813 70.4426 76.0785L68.401 77.1233L69.1302 74.961C69.133 74.9527 69.1427 74.9486 69.1484 74.9536Z" fill="#233863"/>
<path d="M86.9273 57.378C86.8914 57.378 86.8551 57.3656 86.8257 57.3408C86.76 57.2849 86.7525 57.1867 86.8085 57.1218L89.3679 54.1595C89.4248 54.0946 89.5234 54.0871 89.5885 54.1427C89.6542 54.1986 89.6617 54.2965 89.6057 54.3617L87.0462 57.3237C87.0149 57.3594 86.9715 57.378 86.9273 57.378Z" fill="white"/>
<path d="M80.6406 61.7078C80.6047 61.7078 80.5684 61.6954 80.539 61.6705C80.4733 61.6146 80.4658 61.5165 80.5218 61.4516L87.9006 52.91C87.9576 52.8451 88.0564 52.8376 88.1212 52.8932C88.1869 52.9491 88.1944 53.047 88.1384 53.1122L80.7595 61.6534C80.7282 61.6891 80.6847 61.7078 80.6406 61.7078Z" fill="white"/>
<path d="M135.697 86.3925L104.127 65.6641L96.8093 59.9715C94.7617 58.3785 92.3015 57.3936 89.7136 57.1306L81.3292 56.2784C80.1257 56.156 78.9124 56.3833 77.8369 56.9331L73.8568 58.9667C73.2223 59.291 72.8428 59.9584 72.891 60.665L72.9226 61.1284L72.6166 61.2731C71.7791 61.6691 71.2467 62.5092 71.2495 63.4304L71.2545 65.065L70.9801 65.7038C70.6041 66.5797 70.7711 67.5925 71.4093 68.3034L77.5888 75.1871C77.9667 75.6079 78.6252 75.6203 79.0191 75.2141C79.9911 74.2115 80.0606 72.6478 79.1812 71.5639L77.2697 69.2075L83.6718 72.9698C84.7249 73.5888 85.9112 73.9503 87.1326 74.0246L91.0804 74.265L95.1622 78.8907L119.647 108.217C122.58 111.347 126.338 113.114 130.207 113.587C138.005 114.541 145.419 109.93 148.289 102.669L150.528 97.8026L135.697 86.3919L135.697 86.3925Z" fill="#FFAA89"/>
<path d="M73.0268 61.5842C72.8941 61.5842 72.7712 61.5 72.7286 61.368C72.6764 61.205 72.7671 61.0298 72.9317 60.9776L77.6886 59.4707C77.8522 59.4182 78.0293 59.5089 78.0818 59.6723C78.1341 59.8353 78.0433 60.0105 77.8788 60.0627L73.1219 61.5699C73.0903 61.5799 73.0584 61.5845 73.0268 61.5845V61.5842Z" fill="#FF6A48"/>
<path d="M71.4419 65.3303C71.3023 65.3303 71.1753 65.2368 71.139 65.0964C71.0962 64.9299 71.1975 64.761 71.3649 64.7187L77.2775 63.2252C77.4439 63.1817 77.615 63.2832 77.6579 63.4494C77.7008 63.6159 77.5997 63.7848 77.432 63.8271L71.5198 65.3206C71.4938 65.3272 71.4675 65.3303 71.4419 65.3303Z" fill="#FF6A48"/>
<path d="M77.2693 69.5186C77.1836 69.5186 77.0979 69.4838 77.0363 69.4152L75.8446 68.0931C75.7295 67.9651 75.7404 67.7688 75.869 67.6545C75.9979 67.5399 76.196 67.5508 76.3108 67.6787L77.5024 69.0009C77.6175 69.1288 77.6066 69.3251 77.478 69.4394C77.4183 69.4925 77.3435 69.5186 77.2693 69.5186Z" fill="#FF6A48"/>
<path d="M91.0801 74.5762C90.9131 74.5762 90.7742 74.4451 90.7679 74.2777C90.7613 74.1063 90.8956 73.9619 91.0682 73.9553L95.73 73.7737C95.893 73.7619 96.0482 73.9001 96.0548 74.0718C96.0616 74.2432 95.9271 74.3877 95.7544 74.3942L91.0926 74.5759C91.0886 74.5762 91.0845 74.5762 91.0801 74.5762Z" fill="#FF6A48"/>
</g>
<defs>
<clipPath id="clip0_6_926">
<rect width="156" height="116" fill="white"/>
</clipPath>
</defs>
</svg>
